<?xml version="1.0" encoding="utf-8"?>
<!-- Generator: Adobe Illustrator 25.2.1, SVG Export Plug-In . SVG Version: 6.00 Build 0)  -->
<svg version="1.1" id="Layer_1" xmlns="http://www.w3.org/2000/svg" xmlns:xlink="http://www.w3.org/1999/xlink" x="0px" y="0px"
	 viewBox="0 0 381 381" style="enable-background:new 0 0 381 381;" xml:space="preserve">
<style type="text/css">
	.st0{fill:url(#SVGID_1_);}
	.st1{fill:url(#SVGID_2_);}
	.st2{fill:url(#SVGID_3_);}
	.st3{fill:url(#SVGID_4_);}
	.st4{fill:url(#SVGID_5_);}
	.st5{fill:url(#SVGID_6_);}
	.st6{fill:url(#SVGID_7_);}
	.st7{fill:url(#SVGID_8_);}
	.st8{fill:url(#SVGID_9_);}
	.st9{fill:url(#SVGID_10_);}
	.st10{fill:url(#SVGID_11_);}
	.st11{fill:url(#SVGID_12_);}
	.st12{fill:url(#SVGID_13_);}
	.st13{fill:url(#SVGID_14_);}
	.st14{fill:url(#SVGID_15_);}
	.st15{fill:url(#SVGID_16_);}
	.st16{fill:url(#SVGID_17_);}
	.st17{fill:url(#SVGID_18_);}
	.st18{fill:url(#SVGID_19_);}
	.st19{fill:url(#SVGID_20_);}
	.st20{fill:url(#SVGID_21_);}
	.st21{fill:url(#SVGID_22_);}
	.st22{fill:url(#SVGID_23_);}
	.st23{fill:url(#SVGID_24_);}
	.st24{fill:url(#SVGID_25_);}
	.st25{fill:url(#SVGID_26_);}
	.st26{fill:url(#SVGID_27_);}
	.st27{fill:url(#SVGID_28_);}
	.st28{fill:url(#SVGID_29_);}
	.st29{fill:url(#SVGID_30_);}
	.st30{fill:url(#SVGID_31_);}
	.st31{fill:url(#SVGID_32_);}
	.st32{fill:url(#SVGID_33_);}
	.st33{fill:url(#SVGID_34_);}
	.st34{fill:url(#SVGID_35_);}
	.st35{fill:url(#SVGID_36_);}
	.st36{fill:url(#SVGID_37_);}
	.st37{fill:url(#SVGID_38_);}
	.st38{fill:url(#SVGID_39_);}
	.st39{fill:url(#SVGID_40_);}
	.st40{fill:url(#SVGID_41_);}
	.st41{fill:url(#SVGID_42_);}
	.st42{fill:url(#SVGID_43_);}
	.st43{fill:url(#SVGID_44_);}
	.st44{fill:url(#SVGID_45_);}
	.st45{fill:url(#SVGID_46_);}
	.st46{fill:url(#SVGID_47_);}
	.st47{fill:url(#SVGID_48_);}
	.st48{fill:url(#SVGID_49_);}
	.st49{fill:url(#SVGID_50_);}
	.st50{fill:url(#SVGID_51_);}
	.st51{fill:url(#SVGID_52_);}
	.st52{fill:url(#SVGID_53_);}
	.st53{fill:url(#SVGID_54_);}
	.st54{fill:url(#SVGID_55_);}
	.st55{fill:url(#SVGID_56_);}
	.st56{fill:url(#SVGID_57_);}
	.st57{fill:url(#SVGID_58_);}
	.st58{fill:url(#SVGID_59_);}
	.st59{fill:url(#SVGID_60_);}
	.st60{fill:url(#SVGID_61_);}
	.st61{fill:url(#SVGID_62_);}
	.st62{fill:url(#SVGID_63_);}
	.st63{fill:url(#SVGID_64_);}
	.st64{fill:url(#SVGID_65_);}
	.st65{fill:url(#SVGID_66_);}
	.st66{fill:url(#SVGID_67_);}
	.st67{fill:url(#SVGID_68_);}
	.st68{fill:url(#SVGID_69_);}
	.st69{fill:url(#SVGID_70_);}
	.st70{fill:url(#SVGID_71_);}
	.st71{fill:url(#SVGID_72_);}
	.st72{fill:url(#SVGID_73_);}
	.st73{fill:url(#SVGID_74_);}
	.st74{fill:url(#SVGID_75_);}
	.st75{fill:url(#SVGID_76_);}
	.st76{fill:url(#SVGID_77_);}
	.st77{fill:url(#SVGID_78_);}
	.st78{fill:url(#SVGID_79_);}
	.st79{fill:url(#SVGID_80_);}
	.st80{fill:url(#SVGID_81_);}
	.st81{fill:url(#SVGID_82_);}
	.st82{fill:url(#SVGID_83_);}
	.st83{fill:url(#SVGID_84_);}
	.st84{fill:#FFFFFF;}
	.st85{fill:url(#SVGID_85_);}
	.st86{fill:url(#SVGID_86_);}
	.st87{fill:url(#SVGID_87_);}
	.st88{fill:url(#SVGID_88_);}
	.st89{fill:url(#SVGID_89_);}
	.st90{fill:url(#SVGID_90_);}
	.st91{fill:url(#SVGID_91_);}
	.st92{fill:url(#SVGID_92_);}
	.st93{fill:url(#SVGID_93_);}
	.st94{fill:url(#SVGID_94_);}
	.st95{fill:url(#SVGID_95_);}
	.st96{fill:url(#SVGID_96_);}
	.st97{fill:url(#SVGID_97_);}
	.st98{fill:url(#SVGID_98_);}
	.st99{fill:url(#SVGID_99_);}
	.st100{fill:url(#SVGID_100_);}
	.st101{fill:url(#SVGID_101_);}
	.st102{fill:url(#SVGID_102_);}
	.st103{fill:url(#SVGID_103_);}
	.st104{fill:url(#SVGID_104_);}
	.st105{fill:url(#SVGID_105_);}
	.st106{fill:url(#SVGID_106_);}
	.st107{fill:url(#SVGID_107_);}
	.st108{fill:url(#SVGID_108_);}
	.st109{fill:url(#SVGID_109_);}
	.st110{fill:url(#SVGID_110_);}
	.st111{fill:url(#SVGID_111_);}
	.st112{fill:url(#SVGID_112_);}
	.st113{fill:url(#SVGID_113_);}
	.st114{fill:url(#SVGID_114_);}
	.st115{fill:url(#SVGID_115_);}
	.st116{fill:url(#SVGID_116_);}
	.st117{fill:url(#SVGID_117_);}
	.st118{fill:url(#SVGID_118_);}
	.st119{fill:url(#SVGID_119_);}
	.st120{fill:url(#SVGID_120_);}
	.st121{fill:url(#SVGID_121_);}
	.st122{fill:url(#SVGID_122_);}
	.st123{fill:url(#SVGID_123_);}
	.st124{fill:url(#SVGID_124_);}
	.st125{fill:url(#SVGID_125_);}
	.st126{fill:url(#SVGID_126_);}
	.st127{fill:url(#SVGID_127_);}
	.st128{fill:url(#SVGID_128_);}
	.st129{fill:url(#SVGID_129_);}
	.st130{fill:url(#SVGID_130_);}
	.st131{fill:url(#SVGID_131_);}
	.st132{fill:url(#SVGID_132_);}
	.st133{fill:url(#SVGID_133_);}
	.st134{fill:url(#SVGID_134_);}
	.st135{fill:url(#SVGID_135_);}
	.st136{fill:url(#SVGID_136_);}
	.st137{fill:url(#SVGID_137_);}
	.st138{fill:url(#SVGID_138_);}
	.st139{fill:url(#SVGID_139_);}
	.st140{fill:url(#SVGID_140_);}
	.st141{fill:url(#SVGID_141_);}
	.st142{fill:url(#SVGID_142_);}
	.st143{fill:url(#SVGID_143_);}
	.st144{fill:url(#SVGID_144_);}
	.st145{fill:url(#SVGID_145_);}
	.st146{fill:url(#SVGID_146_);}
	.st147{fill:url(#SVGID_147_);}
	.st148{fill:url(#SVGID_148_);}
	.st149{fill:url(#SVGID_149_);}
	.st150{fill:url(#SVGID_150_);}
	.st151{fill:url(#SVGID_151_);}
	.st152{fill:url(#SVGID_152_);}
	.st153{fill:url(#SVGID_153_);}
	.st154{fill:url(#SVGID_154_);}
	.st155{fill:#343C45;}
	.st156{fill:#52585E;}
	.st157{fill:url(#SVGID_155_);}
	.st158{fill:url(#SVGID_156_);}
	.st159{fill:url(#SVGID_157_);}
	.st160{fill:url(#SVGID_158_);}
	.st161{fill:url(#SVGID_159_);}
	.st162{fill:url(#SVGID_160_);}
	.st163{fill:url(#SVGID_161_);}
	.st164{fill:url(#SVGID_162_);}
	.st165{fill:url(#SVGID_163_);}
	.st166{fill:url(#SVGID_164_);}
	.st167{fill:url(#SVGID_165_);}
	.st168{fill:url(#SVGID_166_);}
	.st169{fill:url(#SVGID_167_);}
	.st170{fill:url(#SVGID_168_);}
	.st171{fill:url(#SVGID_169_);}
	.st172{fill:url(#SVGID_170_);}
	.st173{fill:url(#SVGID_171_);}
	.st174{fill:url(#SVGID_172_);}
	.st175{fill:url(#SVGID_173_);}
	.st176{fill:url(#SVGID_174_);}
	.st177{fill:url(#SVGID_175_);}
	.st178{fill:url(#SVGID_176_);}
	.st179{fill:url(#SVGID_177_);}
	.st180{fill:url(#SVGID_178_);}
	.st181{fill:url(#SVGID_179_);}
	.st182{fill:url(#SVGID_180_);}
	.st183{fill:url(#SVGID_181_);}
	.st184{fill:url(#SVGID_182_);}
	.st185{fill:url(#SVGID_183_);}
	.st186{fill:url(#SVGID_184_);}
</style>
<g>
	
		<linearGradient id="SVGID_1_" gradientUnits="userSpaceOnUse" x1="38.9665" y1="177.5118" x2="193.1485" y2="218.8248" gradientTransform="matrix(1 0 0 -1 0 381.9404)">
		<stop  offset="0" style="stop-color:#00A2FE"/>
		<stop  offset="1" style="stop-color:#9400D3"/>
	</linearGradient>
	<path class="st0" d="M201,325.9c-8.3,7.3-9.8,7.6-18.4,2.5c-45.7-26-79.4-63.2-101-111.2c-0.6-1.3-1-2.5-2.2-5.1
		c21.3,8.6,38.7,20.3,52.7,39.1c-1-10.8-5.4-18.4-11.4-25.4c-10.5-12.4-23.5-20.6-37.5-28.3c-14.3-7.9-28.6-15.9-42.2-24.8
		c-4.8-3.2-8.3-8.6-12.1-12.7c-0.6,13.7,6.4,26.4,21,36.2c4.1,2.9,6.4,6,8.3,10.8c23.8,64.2,66.1,111.5,126.7,142.9
		c3.8,1.9,7.3,2.5,11.1,0c13-8.3,26.4-16.5,39.7-24.5c1-0.6,1.3-1.6,1.3-1.3c-13.3-7.9-27.3-14.6-39.4-23.8
		c-27.6-20.6-42.6-48.9-44.5-83.5c-1-17.8-0.6-35.9-1.3-53.7c-1.3-38.7-17.8-68.6-53-86.4c-15.6-7.9-31.8-14.6-47.6-21.6
		C29.5,46.4,19.6,39.4,6.9,24.8c1,4.1,1.3,8.3,2.5,12.1C15.8,54,27.6,66.7,43.4,75s31.8,16.5,47.6,24.5c28.3,14.3,40.3,37.2,40,68.6
		c-0.3,26.7-0.6,54,7,80c10.2,34,27.6,62.2,61.9,76.9C200.3,325.2,200.6,325.6,201,325.9z"/>
	
		<linearGradient id="SVGID_2_" gradientUnits="userSpaceOnUse" x1="169.4748" y1="173.3239" x2="388.5508" y2="232.0249" gradientTransform="matrix(1 0 0 -1 0 381.9404)">
		<stop  offset="0" style="stop-color:#00A2FE"/>
		<stop  offset="1" style="stop-color:#9400D3"/>
	</linearGradient>
	<path class="st1" d="M356.6,33.1c1.9,19.7-1.9,37.5-13.7,53.4c-15.6,20.3-36.5,32.1-60.7,38.7c-23.2,5.7-45.4,13-65.4,26
		c-44.1,29.2-50.2,93.7-21.3,129.9c13,16.5,29.9,27,50.2,31.8c2.2,0.6,5.4-0.6,7.3-2.2c21.3-17.8,37.2-39.7,50.5-63.8
		c4.8-8.9,9.5-17.5,14.3-26.4c1-1.9,1.6-3.5,3.2-6.4c-22.5,8.3-43.5,15.9-64.8,23.8c-2.9,1-5.7,2.9-8.3,4.8
		c-10.8,8.3-12.4,18.1-4.4,31.4c0-15.6,10.5-21.3,21.6-26.4c6.4-2.9,13.3-5.1,20-7.3c0.6,0.6,1.3,1.6,1.9,2.2
		c-9.2,12.1-18.1,23.8-27.3,35.9c-1,1.3-2.2,2.5-3.5,3.8c-7.3,7.9-7.6,8.3-16.8,2.5c-20-12.1-30.5-30.8-32.7-53.4
		c-1.9-18.1-0.3-35.6,13.3-49.5c7-7,14-14,22.5-18.7c15.9-8.6,32.7-16.5,49.5-22.9c24.5-8.9,46.4-20.6,60.7-43.2
		C365.5,76.6,365.2,55,356.6,33.1z"/>
	
		<linearGradient id="SVGID_3_" gradientUnits="userSpaceOnUse" x1="147.0661" y1="250.5343" x2="301.8539" y2="292.0095" gradientTransform="matrix(1 0 0 -1 0 381.9404)">
		<stop  offset="0" style="stop-color:#00A2FE"/>
		<stop  offset="1" style="stop-color:#9400D3"/>
	</linearGradient>
	<path class="st2" d="M289.6,112.8c1-0.3,1.3-0.3,1.6-0.6c16.8-14.9,14.3-29.2-6.4-37.8c-1.9-0.6-3.5-1.6-5.4-1.9
		c-9.8-2.5-19.4-5.7-28.6-11.4c-13-8.3-28.6-5.7-42.9-1.9c-9.2,2.2-18.1,6.4-26.7,10.2c-15.2,6.7-30.2,13.7-45.4,20.3
		c20.3,21.6,27,48.3,28.3,77.5c5.1-23.5,5.7-46.7-2.9-69.9c7.6-3.8,15.2-7.3,22.9-11.1c8.3-4.1,16.2-9.5,24.8-12.7
		c8.3-2.9,17.1-3.2,25.7-4.8c0,0.6,0.3,1.3,0.3,1.9c-7.9,2.9-15.9,5.4-23.8,8.3c0.3,0.6,0.3,1,0.6,1.6c10.8-0.6,21.3-1.6,32.1-1.6
		c10.5,0.3,21,1.6,31.1,3.8c-27.3,1.9-49.2,13.3-66.4,34c-14.9,18.1-24.1,38.7-28.3,61.9c9.8-17.1,22.9-30.5,40.3-40
		c2.2-1.3,3.5-4.8,4.4-7.3c10.2-22.2,30.8-35.6,52.7-34.6C288.9,97.2,292.8,102,289.6,112.8z"/>
	
		<linearGradient id="SVGID_4_" gradientUnits="userSpaceOnUse" x1="78.5997" y1="282.3286" x2="323.8125" y2="348.033" gradientTransform="matrix(1 0 0 -1 0 381.9404)">
		<stop  offset="0" style="stop-color:#00A2FE"/>
		<stop  offset="1" style="stop-color:#9400D3"/>
	</linearGradient>
	<path class="st3" d="M64.1,45.4c8.6,3.8,15.9,7.3,23.5,10.5c1.3,0.6,3.2,0.3,4.8,0c37.2-9.5,74.6-13.3,112.7-11.8
		c34.6,1.3,68.6,6.7,101.6,17.5c4.4,1.6,6,3.8,7,7.6c1.3,7.9,2.9,15.9,4.4,25.1c5.4-5.1,10.2-9.2,14.6-13.7c1-1,1.6-3.5,1.3-5.1
		c-1-5.1-2.9-10.5-3.2-15.6c-0.6-9.2-6-12.7-14.3-15.2C287,35.9,256.9,29.9,226.1,27c-54-4.4-107,0.6-158.8,17.1
		C66.6,44.5,66,44.8,64.1,45.4z"/>
	
		<linearGradient id="SVGID_5_" gradientUnits="userSpaceOnUse" x1="59.0294" y1="82.6661" x2="354.3358" y2="161.7933" gradientTransform="matrix(1 0 0 -1 0 381.9404)">
		<stop  offset="0" style="stop-color:#00A2FE"/>
		<stop  offset="1" style="stop-color:#9400D3"/>
	</linearGradient>
	<path class="st4" d="M348.6,197.6c-8.9,4.1-13.3,9.8-16.2,17.8c-26,68-72.4,117.2-137.5,148.6c-2.2,1-6,1-8.3,0
		C119,331,72.3,279.5,46.6,208.7c-2.2-6-8.6-10.5-12.7-15.6c-1,0.6-1.6,1-2.5,1.6c5.4,14.3,10.2,29.2,16.8,42.9
		c29.5,63.2,76.9,108.6,139.7,138.2c1.6,0.6,4.1,1,5.7,0.3c76.5-35.9,128.6-93.7,154.3-174.7C348,200.4,348,199.5,348.6,197.6z"/>
	
		<linearGradient id="SVGID_6_" gradientUnits="userSpaceOnUse" x1="50.0027" y1="298.3219" x2="339.501" y2="375.8929" gradientTransform="matrix(1 0 0 -1 0 381.9404)">
		<stop  offset="0" style="stop-color:#00A2FE"/>
		<stop  offset="1" style="stop-color:#9400D3"/>
	</linearGradient>
	<path class="st5" d="M344.5,61.3c1.3-5.1,3.2-10.2,4.1-15.6c1-8.3-1.9-12.1-9.8-15.2C297.8,15,255.6,7,211.8,5.1
		C151.4,2.2,93,11.5,36.5,33.1c5.4,6,9.8,7.3,16.8,4.8c37.8-13.3,76.5-20.3,116.6-22.2c54.9-2.5,108.3,4.8,160.1,22.9
		c5.7,1.9,8.9,4.8,9.5,10.8c0.6,4.1,2.2,7.9,3.2,12.1C343.6,61.3,343.9,61.3,344.5,61.3z"/>
	
		<linearGradient id="SVGID_7_" gradientUnits="userSpaceOnUse" x1="205.0365" y1="213.6463" x2="390.4104" y2="263.3171" gradientTransform="matrix(1 0 0 -1 0 381.9404)">
		<stop  offset="0" style="stop-color:#00A2FE"/>
		<stop  offset="1" style="stop-color:#9400D3"/>
	</linearGradient>
	<path class="st6" d="M220.7,220.4c13.3-24.8,38.1-33.3,62.2-41.6c21-7.3,42.9-12.7,61.6-25.4c33-22.2,41.6-54.9,31.8-87.3
		c-1.6,9.8-2.5,20.6-5.4,31.1c-7.3,26.4-25.7,42.6-50.2,52.1c-15.9,6.4-32.1,10.8-48,17.1c-17.8,7.3-34,17.5-44.8,33.7
		c-4.1,5.7-6.4,12.7-9.2,19.4C219.4,219.8,220,220.1,220.7,220.4z"/>
	
		<linearGradient id="SVGID_8_" gradientUnits="userSpaceOnUse" x1="18.3551" y1="256.075" x2="101.9654" y2="278.4782" gradientTransform="matrix(1 0 0 -1 0 381.9404)">
		<stop  offset="0" style="stop-color:#00A2FE"/>
		<stop  offset="1" style="stop-color:#9400D3"/>
	</linearGradient>
	<path class="st7" d="M119.3,173.7c-2.5-23.5-12.1-42.9-32.7-55.3c-18.1-11.1-36.2-21.3-53.4-33.7C21.5,76.2,11.4,65.4,0.9,55.6
		c1,17.5,8.9,32.1,22.9,43.2c8.9,7,19.1,12.7,28.9,18.4C78.4,132.1,103.5,147.4,119.3,173.7z"/>
	
		<linearGradient id="SVGID_9_" gradientUnits="userSpaceOnUse" x1="26.2279" y1="212.7794" x2="107.8383" y2="234.6469" gradientTransform="matrix(1 0 0 -1 0 381.9404)">
		<stop  offset="0" style="stop-color:#00A2FE"/>
		<stop  offset="1" style="stop-color:#9400D3"/>
	</linearGradient>
	<path class="st8" d="M123.8,208.4c-2.2-15.2-12.1-27.9-25.7-37.5c-9.2-6.4-19.1-12.1-28.9-17.8C48.5,141,27.9,128.7,13,107.4
		c-1.9,13.3,2.5,23.5,10.2,32.7c9.8,12.1,22.2,20.3,35.9,27.3c14,7,27.9,13.7,41.3,21.6C109.2,194.4,116.5,202,123.8,208.4z"/>
	
		<linearGradient id="SVGID_10_" gradientUnits="userSpaceOnUse" x1="221.4038" y1="153.4766" x2="357.7625" y2="190.0136" gradientTransform="matrix(1 0 0 -1 0 381.9404)">
		<stop  offset="0" style="stop-color:#00A2FE"/>
		<stop  offset="1" style="stop-color:#9400D3"/>
	</linearGradient>
	<path class="st9" d="M228.3,253.5c2.2-13.7,9.8-23.5,22.2-28.6c14.3-6,29.5-10.8,44.5-15.2c15.9-4.8,31.4-10.5,44.5-21.6
		c6.4-5.4,11.1-11.4,12.1-21.3c-25.7,18.4-55.3,26-83.5,36.2c-12.7,4.4-24.8,10.2-33.3,21.3C227.3,233.1,225.1,242.7,228.3,253.5z"
		/>
</g>
</svg>
