<?xml version="1.0" encoding="utf-8"?>
<!-- Generator: Adobe Illustrator 25.2.1, SVG Export Plug-In . SVG Version: 6.00 Build 0)  -->
<svg version="1.1" id="Layer_1" xmlns="http://www.w3.org/2000/svg" xmlns:xlink="http://www.w3.org/1999/xlink" x="0px" y="0px"
	 viewBox="0 0 147 51" style="enable-background:new 0 0 147 51;" xml:space="preserve">
<style type="text/css">
	.st0{fill:url(#SVGID_1_);}
	.st1{fill:url(#SVGID_2_);}
	.st2{fill:url(#SVGID_3_);}
	.st3{fill:url(#SVGID_4_);}
	.st4{fill:url(#SVGID_5_);}
	.st5{fill:url(#SVGID_6_);}
	.st6{fill:url(#SVGID_7_);}
	.st7{fill:url(#SVGID_8_);}
	.st8{fill:url(#SVGID_9_);}
	.st9{fill:url(#SVGID_10_);}
	.st10{fill:url(#SVGID_11_);}
	.st11{fill:url(#SVGID_12_);}
	.st12{fill:url(#SVGID_13_);}
	.st13{fill:url(#SVGID_14_);}
	.st14{fill:url(#SVGID_15_);}
	.st15{fill:url(#SVGID_16_);}
	.st16{fill:url(#SVGID_17_);}
	.st17{fill:url(#SVGID_18_);}
	.st18{fill:url(#SVGID_19_);}
	.st19{fill:url(#SVGID_20_);}
	.st20{fill:url(#SVGID_21_);}
	.st21{fill:url(#SVGID_22_);}
	.st22{fill:url(#SVGID_23_);}
	.st23{fill:url(#SVGID_24_);}
	.st24{fill:url(#SVGID_25_);}
	.st25{fill:url(#SVGID_26_);}
	.st26{fill:url(#SVGID_27_);}
	.st27{fill:url(#SVGID_28_);}
	.st28{fill:url(#SVGID_29_);}
	.st29{fill:url(#SVGID_30_);}
	.st30{fill:url(#SVGID_31_);}
	.st31{fill:url(#SVGID_32_);}
	.st32{fill:url(#SVGID_33_);}
	.st33{fill:url(#SVGID_34_);}
	.st34{fill:url(#SVGID_35_);}
	.st35{fill:url(#SVGID_36_);}
	.st36{fill:url(#SVGID_37_);}
	.st37{fill:url(#SVGID_38_);}
	.st38{fill:url(#SVGID_39_);}
	.st39{fill:url(#SVGID_40_);}
	.st40{fill:url(#SVGID_41_);}
	.st41{fill:url(#SVGID_42_);}
	.st42{fill:url(#SVGID_43_);}
	.st43{fill:url(#SVGID_44_);}
	.st44{fill:url(#SVGID_45_);}
	.st45{fill:url(#SVGID_46_);}
	.st46{fill:url(#SVGID_47_);}
	.st47{fill:url(#SVGID_48_);}
	.st48{fill:url(#SVGID_49_);}
	.st49{fill:url(#SVGID_50_);}
	.st50{fill:url(#SVGID_51_);}
	.st51{fill:url(#SVGID_52_);}
	.st52{fill:url(#SVGID_53_);}
	.st53{fill:url(#SVGID_54_);}
	.st54{fill:url(#SVGID_55_);}
	.st55{fill:url(#SVGID_56_);}
	.st56{fill:url(#SVGID_57_);}
	.st57{fill:url(#SVGID_58_);}
	.st58{fill:url(#SVGID_59_);}
	.st59{fill:url(#SVGID_60_);}
	.st60{fill:url(#SVGID_61_);}
	.st61{fill:url(#SVGID_62_);}
	.st62{fill:url(#SVGID_63_);}
	.st63{fill:url(#SVGID_64_);}
	.st64{fill:url(#SVGID_65_);}
	.st65{fill:url(#SVGID_66_);}
	.st66{fill:url(#SVGID_67_);}
	.st67{fill:url(#SVGID_68_);}
	.st68{fill:url(#SVGID_69_);}
	.st69{fill:url(#SVGID_70_);}
	.st70{fill:url(#SVGID_71_);}
	.st71{fill:url(#SVGID_72_);}
	.st72{fill:url(#SVGID_73_);}
	.st73{fill:url(#SVGID_74_);}
	.st74{fill:url(#SVGID_75_);}
	.st75{fill:url(#SVGID_76_);}
	.st76{fill:url(#SVGID_77_);}
	.st77{fill:url(#SVGID_78_);}
	.st78{fill:url(#SVGID_79_);}
	.st79{fill:url(#SVGID_80_);}
	.st80{fill:url(#SVGID_81_);}
	.st81{fill:url(#SVGID_82_);}
	.st82{fill:url(#SVGID_83_);}
	.st83{fill:url(#SVGID_84_);}
	.st84{fill:#FFFFFF;}
	.st85{fill:url(#SVGID_85_);}
	.st86{fill:url(#SVGID_86_);}
	.st87{fill:url(#SVGID_87_);}
	.st88{fill:url(#SVGID_88_);}
	.st89{fill:url(#SVGID_89_);}
	.st90{fill:url(#SVGID_90_);}
	.st91{fill:url(#SVGID_91_);}
	.st92{fill:url(#SVGID_92_);}
	.st93{fill:url(#SVGID_93_);}
	.st94{fill:url(#SVGID_94_);}
	.st95{fill:url(#SVGID_95_);}
	.st96{fill:url(#SVGID_96_);}
	.st97{fill:url(#SVGID_97_);}
	.st98{fill:url(#SVGID_98_);}
	.st99{fill:url(#SVGID_99_);}
	.st100{fill:url(#SVGID_100_);}
	.st101{fill:url(#SVGID_101_);}
	.st102{fill:url(#SVGID_102_);}
	.st103{fill:url(#SVGID_103_);}
	.st104{fill:url(#SVGID_104_);}
	.st105{fill:url(#SVGID_105_);}
	.st106{fill:url(#SVGID_106_);}
	.st107{fill:url(#SVGID_107_);}
	.st108{fill:url(#SVGID_108_);}
	.st109{fill:url(#SVGID_109_);}
	.st110{fill:url(#SVGID_110_);}
	.st111{fill:url(#SVGID_111_);}
	.st112{fill:url(#SVGID_112_);}
	.st113{fill:url(#SVGID_113_);}
	.st114{fill:url(#SVGID_114_);}
	.st115{fill:url(#SVGID_115_);}
	.st116{fill:url(#SVGID_116_);}
	.st117{fill:url(#SVGID_117_);}
	.st118{fill:url(#SVGID_118_);}
	.st119{fill:url(#SVGID_119_);}
	.st120{fill:url(#SVGID_120_);}
	.st121{fill:url(#SVGID_121_);}
	.st122{fill:url(#SVGID_122_);}
	.st123{fill:url(#SVGID_123_);}
	.st124{fill:url(#SVGID_124_);}
	.st125{fill:url(#SVGID_125_);}
	.st126{fill:url(#SVGID_126_);}
	.st127{fill:url(#SVGID_127_);}
	.st128{fill:url(#SVGID_128_);}
	.st129{fill:url(#SVGID_129_);}
	.st130{fill:url(#SVGID_130_);}
	.st131{fill:url(#SVGID_131_);}
	.st132{fill:url(#SVGID_132_);}
	.st133{fill:url(#SVGID_133_);}
	.st134{fill:url(#SVGID_134_);}
	.st135{fill:url(#SVGID_135_);}
	.st136{fill:url(#SVGID_136_);}
	.st137{fill:url(#SVGID_137_);}
	.st138{fill:url(#SVGID_138_);}
	.st139{fill:url(#SVGID_139_);}
	.st140{fill:url(#SVGID_140_);}
	.st141{fill:url(#SVGID_141_);}
	.st142{fill:url(#SVGID_142_);}
	.st143{fill:url(#SVGID_143_);}
	.st144{fill:url(#SVGID_144_);}
	.st145{fill:url(#SVGID_145_);}
	.st146{fill:url(#SVGID_146_);}
	.st147{fill:url(#SVGID_147_);}
	.st148{fill:url(#SVGID_148_);}
	.st149{fill:url(#SVGID_149_);}
	.st150{fill:url(#SVGID_150_);}
	.st151{fill:url(#SVGID_151_);}
	.st152{fill:url(#SVGID_152_);}
	.st153{fill:url(#SVGID_153_);}
	.st154{fill:url(#SVGID_154_);}
	.st155{fill:#343C45;}
	.st156{fill:#52585E;}
	.st157{fill:url(#SVGID_155_);}
	.st158{fill:url(#SVGID_156_);}
	.st159{fill:url(#SVGID_157_);}
	.st160{fill:url(#SVGID_158_);}
	.st161{fill:url(#SVGID_159_);}
	.st162{fill:url(#SVGID_160_);}
	.st163{fill:url(#SVGID_161_);}
	.st164{fill:url(#SVGID_162_);}
	.st165{fill:url(#SVGID_163_);}
	.st166{fill:url(#SVGID_164_);}
	.st167{fill:url(#SVGID_165_);}
	.st168{fill:url(#SVGID_166_);}
	.st169{fill:url(#SVGID_167_);}
	.st170{fill:url(#SVGID_168_);}
	.st171{fill:url(#SVGID_169_);}
	.st172{fill:url(#SVGID_170_);}
	.st173{fill:url(#SVGID_171_);}
	.st174{fill:url(#SVGID_172_);}
	.st175{fill:url(#SVGID_173_);}
	.st176{fill:url(#SVGID_174_);}
	.st177{fill:url(#SVGID_175_);}
	.st178{fill:url(#SVGID_176_);}
	.st179{fill:url(#SVGID_177_);}
	.st180{fill:url(#SVGID_178_);}
	.st181{fill:url(#SVGID_179_);}
	.st182{fill:url(#SVGID_180_);}
	.st183{fill:url(#SVGID_181_);}
	.st184{fill:url(#SVGID_182_);}
	.st185{fill:url(#SVGID_183_);}
	.st186{fill:url(#SVGID_184_);}
</style>
<g>
	<g>
		<g>
			<path class="st155" d="M70.2,24.9c0.2-0.5,0.3-1,0.3-1.5v-0.1c0-1.2-0.5-2.2-1.5-3.1c-0.7-0.6-1.6-0.9-2.7-0.9h-5.2l0,0
				c0.7-0.8,1.4-1.4,2.1-1.8c1-0.6,2.1-0.9,3.3-0.9c1.8,0,3.4,0.6,4.8,2c1.3,1.4,2,3,2,4.8c0,1.5-0.4,2.7-1.3,3.9l0.5,0.7
				c0.4,0.6,0.3,1.2-0.3,1.9c-0.6,0.5-1.2,0.3-1.9-0.3L70,29.1c-1.1,0.6-2.2,1-3.5,1c-1.8,0-3.4-0.6-4.8-2c-1.3-1.4-2-3-2-4.8
				c0-0.7,0.1-1.4,0.3-2c0.3-0.5,0.7-0.7,1.1-0.7h0.1c0.6,0,1.1,0.4,1.3,1.1c0,0.1,0,0.2,0,0.3c-0.1,0.6-0.2,1-0.2,1.3v0
				c0,1.3,0.6,2.5,1.8,3.3c0.7,0.5,1.5,0.7,2.3,0.7c0.7,0,1.3-0.2,1.9-0.5l-0.6-0.7c-0.4-0.6-0.3-1.2,0.3-1.9
				c0.7-0.4,1.2-0.4,1.8,0.2L70.2,24.9z"/>
			<path class="st155" d="M75.7,16.6c0.9,0,1.3,0.5,1.3,1.4v6.3c0,1.2,0.4,2.1,1.2,2.6c0.1,0.2,0.6,0.3,1.6,0.4h0.1
				c0.9,0,1.6-0.3,2-0.9s0.6-1.2,0.6-1.9V18c0-0.9,0.5-1.4,1.4-1.4c0.9,0.1,1.3,0.6,1.3,1.3v6.4c0,2.4-1,4.2-3,5.2
				c-0.9,0.4-1.6,0.6-2.2,0.6h-0.1c-2.3,0-4-1.1-5.1-3.2c-0.3-0.6-0.5-1.5-0.5-3v-5.7C74.3,17.1,74.8,16.6,75.7,16.6z"/>
			<path class="st155" d="M86.5,20v-2.1c0-0.7,0.5-1.2,1.4-1.3c0.8,0,1.2,0.5,1.3,1.4v0.3c0,0,0,0.1,0,0.2v10.3
				c0,0.7-0.5,1.2-1.4,1.3c-0.8,0-1.2-0.5-1.3-1.4V20z"/>
			<path class="st155" d="M92.9,21.9v6.9c0,0.7-0.5,1.2-1.4,1.3c-0.8,0-1.2-0.5-1.3-1.4V20V18c0-0.7,0.5-1.2,1.4-1.3
				c0.3,0,0.6,0.1,0.8,0.3c0.2,0.1,0.3,0.2,0.5,0.4l0.2,0.2c0,0,0.1,0.1,0.1,0.1l5.4,7.2V20V18c0-0.7,0.5-1.2,1.4-1.3
				c0.8,0,1.2,0.5,1.3,1.4v0.3c0,0,0,0.1,0,0.2v10.3c0,0.4-0.2,0.8-0.5,1c0,0-0.1,0.1-0.2,0.2c-0.6,0.4-1.2,0.3-1.9-0.4L92.9,21.9z"
				/>
			<path class="st155" d="M103.5,19.3c-0.9,0-1.4-0.5-1.5-1.4c0-0.8,0.5-1.2,1.4-1.3c0,0,0.1,0,0.2,0h8c0.7,0,1.2,0.5,1.3,1.4
				c0,0.8-0.5,1.2-1.4,1.3h-0.9l0,0H103.5z M108.7,27.1v1.6c0,0.8-0.5,1.2-1.4,1.4c-0.8,0-1.2-0.5-1.3-1.5v-5.3l0,0v-1.6
				c0-0.8,0.5-1.2,1.4-1.4c0.8,0,1.2,0.5,1.3,1.5V27.1L108.7,27.1z"/>
			<path class="st155" d="M120.4,16.5c1.8,0,3.4,0.6,4.8,2c1.3,1.4,2,3,2,4.8c0,1.8-0.6,3.4-2,4.8c-1.4,1.3-3,2-4.8,2
				s-3.4-0.6-4.8-2c-1.3-1.4-2-3-2-4.8c0-0.7,0.1-1.4,0.3-2c0.3-0.5,0.7-0.7,1.1-0.7h0.1c0.6,0,1.1,0.4,1.3,1.1c0,0.1,0,0.2,0,0.3
				c-0.1,0.6-0.2,1-0.2,1.3v0c0,1.3,0.6,2.5,1.8,3.3c0.7,0.5,1.5,0.7,2.3,0.7c1.3,0,2.4-0.6,3.3-1.7c0.5-0.7,0.7-1.5,0.7-2.3v-0.1
				c0-1.2-0.5-2.2-1.5-3.1c-0.7-0.6-1.6-0.9-2.7-0.9H115l0,0c0.7-0.8,1.4-1.4,2.1-1.8C118.2,16.8,119.3,16.5,120.4,16.5z"/>
			<path class="st155" d="M131.1,22v6.8c0,0.9-0.5,1.3-1.4,1.3c-0.8,0-1.2-0.5-1.3-1.4V20V18c0-0.7,0.5-1.2,1.4-1.3
				c0.3,0,0.6,0.1,0.8,0.3c0.2,0.1,0.3,0.2,0.5,0.4l0.2,0.2c0,0,0.1,0.1,0.1,0.1l4.5,6.5l4.3-6.4c0,0,0.1-0.1,0.1-0.1l0.2-0.2
				c0.2-0.2,0.3-0.3,0.5-0.4c0.2-0.2,0.5-0.3,0.8-0.3c0.9,0.1,1.4,0.6,1.4,1.3v2.1v8.7c-0.1,0.9-0.6,1.4-1.3,1.4
				c-0.9,0-1.3-0.4-1.4-1.3V22c-2.1,3.3-3.4,5.1-3.8,5.4c-0.3,0.3-0.6,0.4-0.8,0.4s-0.4-0.1-0.7-0.2C134.8,27.4,133.5,25.6,131.1,22
				z"/>
		</g>
		<g>
			<g>
				<path class="st156" d="M61.9,35.5v0.2H60v1.3h1.7v0.2H60v1.4h2v0.2h-2.2v-3.3L61.9,35.5L61.9,35.5z"/>
				<path class="st156" d="M65.6,37.4v1.5h-0.2v-1.5c0-0.5-0.3-0.8-0.8-0.8c-0.6,0-0.9,0.4-0.9,0.9v1.3h-0.2v-2.4h0.2v0.6
					c0.2-0.4,0.5-0.6,1-0.6C65.3,36.4,65.6,36.7,65.6,37.4z"/>
				<path class="st156" d="M68.4,38.7c-0.2,0.1-0.3,0.2-0.5,0.2c-0.3,0-0.6-0.2-0.6-0.7v-1.5H67v-0.2h0.3v-0.6h0.2v0.6h0.8v0.2h-0.8
					v1.5c0,0.3,0.1,0.5,0.4,0.5c0.1,0,0.3,0,0.4-0.1L68.4,38.7z"/>
				<path class="st156" d="M71.7,37.7h-2.1c0,0.6,0.4,1,1,1c0.3,0,0.6-0.1,0.8-0.3l0.1,0.1c-0.2,0.3-0.6,0.4-0.9,0.4
					c-0.7,0-1.2-0.5-1.2-1.2s0.5-1.2,1.2-1.2C71.3,36.4,71.8,36.9,71.7,37.7z M71.6,37.5c0-0.6-0.4-0.9-0.9-0.9
					c-0.6,0-0.9,0.4-1,0.9H71.6z"/>
				<path class="st156" d="M74.3,36.4v0.2c-0.6,0-0.9,0.3-0.9,0.9v1.3h-0.2v-2.4h0.2V37C73.5,36.6,73.8,36.4,74.3,36.4z"/>
				<path class="st156" d="M78,37.6c0,0.7-0.5,1.2-1.2,1.2c-0.5,0-0.9-0.3-1-0.6v1.5h-0.2v-3.4h0.2V37c0.2-0.4,0.6-0.6,1-0.6
					C77.5,36.4,78,36.9,78,37.6z M77.8,37.6c0-0.6-0.4-1.1-1-1.1s-1,0.4-1,1.1c0,0.6,0.4,1,1,1C77.4,38.7,77.8,38.2,77.8,37.6z"/>
				<path class="st156" d="M80.5,36.4v0.2c-0.6,0-0.9,0.3-0.9,0.9v1.3h-0.2v-2.4h0.2V37C79.8,36.6,80.1,36.4,80.5,36.4z"/>
				<path class="st156" d="M82,35.7c0,0.1-0.1,0.2-0.2,0.2s-0.2-0.1-0.2-0.2c0-0.1,0.1-0.2,0.2-0.2S82,35.6,82,35.7z M82,36.4v2.4
					h-0.2v-2.4H82z"/>
				<path class="st156" d="M84.2,36.6c-0.3,0-0.6,0.1-0.6,0.4c0,0.6,1.4,0.3,1.4,1.2c0,0.5-0.4,0.6-0.9,0.6c-0.3,0-0.7-0.1-0.9-0.3
					l0.1-0.2c0.2,0.2,0.5,0.3,0.8,0.3c0.3,0,0.6-0.1,0.6-0.4c0-0.7-1.4-0.4-1.4-1.2c0-0.4,0.4-0.6,0.8-0.6c0.3,0,0.5,0.1,0.7,0.2
					l-0.1,0.2C84.7,36.6,84.4,36.6,84.2,36.6z"/>
				<path class="st156" d="M88.5,37.7h-2.1c0,0.6,0.4,1,1,1c0.3,0,0.6-0.1,0.8-0.3l0.1,0.1c-0.2,0.3-0.6,0.4-0.9,0.4
					c-0.7,0-1.2-0.5-1.2-1.2s0.5-1.2,1.2-1.2C88.1,36.4,88.5,36.9,88.5,37.7z M88.3,37.5c0-0.6-0.4-0.9-0.9-0.9s-0.9,0.4-1,0.9H88.3
					z"/>
				<path class="st156" d="M93,35.8c-0.5,0-0.9,0.2-0.9,0.6c0,1,1.9,0.5,1.9,1.7c0,0.5-0.5,0.9-1.2,0.9c-0.4,0-0.9-0.2-1.2-0.5
					l0.1-0.2c0.3,0.3,0.7,0.4,1.1,0.4c0.6,0,0.9-0.3,0.9-0.6c0-1-1.9-0.5-1.9-1.7c0-0.5,0.4-0.8,1.1-0.8c0.3,0,0.7,0.1,0.9,0.3
					L93.8,36C93.6,35.8,93.2,35.8,93,35.8z"/>
				<path class="st156" d="M97.7,37.7h-2.1c0,0.6,0.4,1,1,1c0.3,0,0.6-0.1,0.8-0.3l0.1,0.1c-0.2,0.3-0.6,0.4-0.9,0.4
					c-0.7,0-1.2-0.5-1.2-1.2s0.5-1.2,1.2-1.2C97.2,36.4,97.7,36.9,97.7,37.7z M97.4,37.5c0-0.6-0.4-0.9-0.9-0.9
					c-0.6,0-0.9,0.4-1,0.9H97.4z"/>
				<path class="st156" d="M100,36.6c-0.6,0-1,0.4-1,1c0,0.6,0.4,1.1,1,1.1c0.3,0,0.6-0.1,0.8-0.3l0.1,0.1c-0.2,0.3-0.6,0.4-0.9,0.4
					c-0.7,0-1.2-0.5-1.2-1.2c0-0.7,0.5-1.2,1.2-1.2c0.3,0,0.6,0.1,0.9,0.3l-0.1,0.2C100.6,36.7,100.3,36.6,100,36.6z"/>
				<path class="st156" d="M104.4,36.4v2.4h-0.2v-0.6c-0.2,0.4-0.5,0.6-1,0.6c-0.6,0-0.9-0.3-0.9-0.9v-1.5h0.2v1.5
					c0,0.5,0.3,0.8,0.8,0.8c0.6,0,0.9-0.4,0.9-1.1v-1.2H104.4z"/>
				<path class="st156" d="M107.2,36.4v0.2c-0.6,0-0.9,0.3-0.9,0.9v1.3h-0.2v-2.4h0.2V37C106.5,36.6,106.8,36.4,107.2,36.4z"/>
				<path class="st156" d="M108.8,35.7c0,0.1-0.1,0.2-0.2,0.2s-0.2-0.1-0.2-0.2c0-0.1,0.1-0.2,0.2-0.2S108.8,35.6,108.8,35.7z
					 M108.7,36.4v2.4h-0.2v-2.4H108.7z"/>
				<path class="st156" d="M111.5,38.7c-0.2,0.1-0.3,0.2-0.5,0.2c-0.3,0-0.6-0.2-0.6-0.7v-1.5h-0.3v-0.2h0.3v-0.6h0.2v0.6h0.8v0.2
					h-0.8v1.5c0,0.3,0.1,0.5,0.4,0.5c0.1,0,0.3,0,0.4-0.1L111.5,38.7z"/>
				<path class="st156" d="M112.8,39.8c-0.2,0-0.3,0-0.5-0.1l0.1-0.2c0.1,0.1,0.2,0.1,0.4,0.1c0.2,0,0.4-0.2,0.5-0.4l0.1-0.3l-1-2.4
					h0.2l0.9,2.2l0.9-2.2h0.2l-1.2,2.8C113.3,39.6,113.1,39.8,112.8,39.8z"/>
				<path class="st156" d="M121,37.2c0,0.9-0.8,1.6-1.7,1.6H118v-3.3h1.3C120.2,35.5,121,36.3,121,37.2z M120.8,37.2
					c0-0.8-0.7-1.5-1.5-1.5h-1.1v2.9h1.1C120.1,38.6,120.8,38,120.8,37.2z"/>
				<path class="st156" d="M124.5,37.7h-2.1c0,0.6,0.4,1,1,1c0.3,0,0.6-0.1,0.8-0.3l0.1,0.1c-0.2,0.3-0.6,0.4-0.9,0.4
					c-0.7,0-1.2-0.5-1.2-1.2s0.5-1.2,1.2-1.2C124,36.4,124.5,36.9,124.5,37.7z M124.3,37.5c0-0.6-0.4-0.9-0.9-0.9
					c-0.6,0-0.9,0.4-1,0.9H124.3z"/>
				<path class="st156" d="M126.1,35.3v3.5h-0.2v-3.5H126.1z"/>
				<path class="st156" d="M128.1,35.7c0,0.1-0.1,0.2-0.2,0.2s-0.2-0.1-0.2-0.2c0-0.1,0.1-0.2,0.2-0.2S128.1,35.6,128.1,35.7z
					 M128,36.4v2.4h-0.2v-2.4H128z"/>
				<path class="st156" d="M129.5,36.4l0.9,2.2l0.9-2.2h0.2l-1,2.4h-0.2l-1-2.4H129.5z"/>
				<path class="st156" d="M134.6,37.7h-2.1c0,0.6,0.4,1,1,1c0.3,0,0.6-0.1,0.8-0.3l0.1,0.1c-0.2,0.3-0.6,0.4-0.9,0.4
					c-0.7,0-1.2-0.5-1.2-1.2s0.5-1.2,1.2-1.2C134.2,36.4,134.7,36.9,134.6,37.7z M134.5,37.5c0-0.6-0.4-0.9-0.9-0.9
					c-0.6,0-0.9,0.4-1,0.9H134.5z"/>
				<path class="st156" d="M137.2,36.4v0.2c-0.6,0-0.9,0.3-0.9,0.9v1.3H136v-2.4h0.2V37C136.4,36.6,136.7,36.4,137.2,36.4z"/>
				<path class="st156" d="M140.5,37.7h-2.1c0,0.6,0.4,1,1,1c0.3,0,0.6-0.1,0.8-0.3l0.1,0.1c-0.2,0.3-0.6,0.4-0.9,0.4
					c-0.7,0-1.2-0.5-1.2-1.2s0.5-1.2,1.2-1.2C140.1,36.4,140.5,36.9,140.5,37.7z M140.3,37.5c0-0.6-0.4-0.9-0.9-0.9
					c-0.6,0-0.9,0.4-1,0.9H140.3z"/>
				<path class="st156" d="M144.1,35.3v3.5h-0.2v-0.6c-0.2,0.4-0.6,0.6-1,0.6c-0.7,0-1.2-0.5-1.2-1.2s0.5-1.2,1.2-1.2
					c0.5,0,0.9,0.3,1.1,0.6v-1.7C143.9,35.3,144.1,35.3,144.1,35.3z M143.9,37.6c0-0.6-0.4-1.1-1-1.1s-1,0.4-1,1.1
					c0,0.6,0.4,1.1,1,1.1S143.9,38.3,143.9,37.6z"/>
			</g>
		</g>
	</g>
	<g>
		
			<linearGradient id="SVGID_1_" gradientUnits="userSpaceOnUse" x1="8.0785" y1="24.5592" x2="28.9037" y2="30.1393" gradientTransform="matrix(1 0 0 -1 0 51.9405)">
			<stop  offset="0" style="stop-color:#00A2FE"/>
			<stop  offset="1" style="stop-color:#9400D3"/>
		</linearGradient>
		<path class="st0" d="M30,43.8c-1.1,1-1.3,1-2.5,0.3c-6.2-3.5-10.7-8.5-13.6-15c-0.1-0.2-0.1-0.3-0.3-0.7c2.9,1.2,5.2,2.7,7.1,5.3
			c-0.1-1.5-0.7-2.5-1.5-3.4c-1.4-1.7-3.2-2.8-5.1-3.8c-1.9-1.1-3.9-2.1-5.7-3.3c-0.6-0.4-1.1-1.2-1.6-1.7c-0.1,1.8,0.9,3.6,2.8,4.9
			c0.6,0.4,0.9,0.8,1.1,1.5c3.2,8.7,8.9,15.1,17.1,19.3c0.5,0.3,1,0.3,1.5,0c1.8-1.1,3.6-2.2,5.4-3.3c0.1-0.1,0.2-0.2,0.2-0.2
			c-1.8-1.1-3.7-2-5.3-3.2c-3.7-2.8-5.7-6.6-6-11.3c-0.1-2.4-0.1-4.8-0.2-7.2c-0.2-5.2-2.4-9.3-7.2-11.7c-2.1-1.1-4.3-2-6.4-2.9
			C6.8,6,5.5,5.1,3.7,3.1c0.1,0.6,0.2,1.1,0.3,1.6c0.9,2.3,2.4,4,4.6,5.1s4.3,2.2,6.4,3.3c3.8,1.9,5.4,5,5.4,9.3
			c0,3.6-0.1,7.3,0.9,10.8c1.4,4.6,3.7,8.4,8.4,10.4C29.9,43.7,29.9,43.7,30,43.8z"/>
		
			<linearGradient id="SVGID_2_" gradientUnits="userSpaceOnUse" x1="25.7061" y1="23.9935" x2="55.2965" y2="31.9222" gradientTransform="matrix(1 0 0 -1 0 51.9405)">
			<stop  offset="0" style="stop-color:#00A2FE"/>
			<stop  offset="1" style="stop-color:#9400D3"/>
		</linearGradient>
		<path class="st1" d="M51,4.2c0.3,2.7-0.3,5.1-1.8,7.2c-2.1,2.7-4.9,4.3-8.2,5.2c-3.1,0.8-6.1,1.8-8.8,3.5
			c-6,3.9-6.8,12.7-2.9,17.5c1.8,2.2,4,3.6,6.8,4.3c0.3,0.1,0.7-0.1,1-0.3c2.9-2.4,5-5.4,6.8-8.6c0.6-1.2,1.3-2.4,1.9-3.6
			c0.1-0.3,0.2-0.5,0.4-0.9c-3,1.1-5.9,2.1-8.8,3.2c-0.4,0.1-0.8,0.4-1.1,0.6c-1.5,1.1-1.7,2.4-0.6,4.2c0-2.1,1.4-2.9,2.9-3.6
			c0.9-0.4,1.8-0.7,2.7-1c0.1,0.1,0.2,0.2,0.3,0.3c-1.2,1.6-2.4,3.2-3.7,4.8c-0.1,0.2-0.3,0.3-0.5,0.5c-1,1.1-1,1.1-2.3,0.3
			c-2.7-1.6-4.1-4.2-4.4-7.2c-0.3-2.4,0-4.8,1.8-6.7c0.9-0.9,1.9-1.9,3-2.5c2.1-1.2,4.4-2.2,6.7-3.1c3.3-1.2,6.3-2.8,8.2-5.8
			C52.2,10.1,52.1,7.2,51,4.2z"/>
		
			<linearGradient id="SVGID_3_" gradientUnits="userSpaceOnUse" x1="22.6794" y1="34.4223" x2="43.5864" y2="40.0243" gradientTransform="matrix(1 0 0 -1 0 51.9405)">
			<stop  offset="0" style="stop-color:#00A2FE"/>
			<stop  offset="1" style="stop-color:#9400D3"/>
		</linearGradient>
		<path class="st2" d="M41.9,15c0.1,0,0.2,0,0.2-0.1c2.3-2,1.9-3.9-0.9-5.1c-0.3-0.1-0.5-0.2-0.7-0.3c-1.3-0.3-2.6-0.8-3.9-1.5
			c-1.8-1.1-3.9-0.8-5.8-0.3c-1.2,0.3-2.4,0.9-3.6,1.4c-2.1,0.9-4.1,1.8-6.1,2.7c2.7,2.9,3.6,6.5,3.8,10.5c0.7-3.2,0.8-6.3-0.4-9.4
			c1-0.5,2.1-1,3.1-1.5c1.1-0.6,2.2-1.3,3.3-1.7c1.1-0.4,2.3-0.4,3.5-0.6c0,0.1,0,0.2,0,0.3c-1.1,0.4-2.1,0.7-3.2,1.1
			c0,0.1,0,0.1,0.1,0.2c1.5-0.1,2.9-0.2,4.3-0.2c1.4,0,2.8,0.2,4.2,0.5c-3.7,0.3-6.6,1.8-9,4.6c-2,2.4-3.3,5.2-3.8,8.4
			c1.3-2.3,3.1-4.1,5.4-5.4c0.3-0.2,0.5-0.6,0.6-1c1.4-3,4.2-4.8,7.1-4.7C41.8,12.9,42.4,13.5,41.9,15z"/>
		
			<linearGradient id="SVGID_4_" gradientUnits="userSpaceOnUse" x1="13.4317" y1="38.7167" x2="46.5523" y2="47.5913" gradientTransform="matrix(1 0 0 -1 0 51.9405)">
			<stop  offset="0" style="stop-color:#00A2FE"/>
			<stop  offset="1" style="stop-color:#9400D3"/>
		</linearGradient>
		<path class="st3" d="M11.5,5.9c1.2,0.5,2.1,1,3.2,1.4c0.2,0.1,0.4,0,0.6,0c5-1.3,10.1-1.8,15.2-1.6c4.7,0.2,9.3,0.9,13.7,2.4
			c0.6,0.2,0.8,0.5,0.9,1c0.2,1.1,0.4,2.1,0.6,3.4c0.7-0.7,1.4-1.2,2-1.8c0.1-0.1,0.2-0.5,0.2-0.7c-0.1-0.7-0.4-1.4-0.4-2.1
			c-0.1-1.2-0.8-1.7-1.9-2.1c-4-1.2-8.1-2-12.2-2.4c-7.3-0.6-14.5,0.1-21.4,2.3C11.8,5.8,11.7,5.8,11.5,5.9z"/>
		
			<linearGradient id="SVGID_5_" gradientUnits="userSpaceOnUse" x1="10.7883" y1="11.7485" x2="50.6751" y2="22.4361" gradientTransform="matrix(1 0 0 -1 0 51.9405)">
			<stop  offset="0" style="stop-color:#00A2FE"/>
			<stop  offset="1" style="stop-color:#9400D3"/>
		</linearGradient>
		<path class="st4" d="M49.9,26.5c-1.2,0.6-1.8,1.3-2.2,2.4c-3.5,9.2-9.8,15.8-18.6,20.1c-0.3,0.1-0.8,0.1-1.1,0
			c-9.1-4.5-15.4-11.4-18.9-21c-0.3-0.8-1.2-1.4-1.7-2.1c-0.1,0.1-0.2,0.1-0.3,0.2C7.8,28,8.4,30,9.3,31.9
			c4,8.5,10.4,14.7,18.9,18.7c0.2,0.1,0.6,0.1,0.8,0C39.3,45.7,46.3,37.9,49.8,27C49.8,26.8,49.8,26.7,49.9,26.5z"/>
		
			<linearGradient id="SVGID_6_" gradientUnits="userSpaceOnUse" x1="9.5691" y1="40.8769" x2="48.6714" y2="51.3543" gradientTransform="matrix(1 0 0 -1 0 51.9405)">
			<stop  offset="0" style="stop-color:#00A2FE"/>
			<stop  offset="1" style="stop-color:#9400D3"/>
		</linearGradient>
		<path class="st5" d="M49.3,8.1c0.2-0.7,0.4-1.4,0.6-2.1c0.1-1.1-0.3-1.6-1.3-2.1C43,1.8,37.3,0.7,31.4,0.5
			c-8.2-0.4-16,0.9-23.7,3.8C8.5,5,9.1,5.2,10,4.9c5.1-1.8,10.3-2.7,15.7-3C33.2,1.5,40.4,2.5,47.4,5c0.8,0.3,1.2,0.6,1.3,1.5
			C48.7,7,49,7.5,49.1,8.1C49.2,8.1,49.3,8.1,49.3,8.1z"/>
		
			<linearGradient id="SVGID_7_" gradientUnits="userSpaceOnUse" x1="30.5094" y1="29.4398" x2="55.5476" y2="36.1488" gradientTransform="matrix(1 0 0 -1 0 51.9405)">
			<stop  offset="0" style="stop-color:#00A2FE"/>
			<stop  offset="1" style="stop-color:#9400D3"/>
		</linearGradient>
		<path class="st6" d="M32.6,29.5c1.8-3.3,5.1-4.5,8.4-5.6c2.8-1,5.8-1.7,8.3-3.4c4.5-3,5.6-7.4,4.3-11.8c-0.2,1.3-0.3,2.8-0.7,4.2
			c-1,3.6-3.5,5.7-6.8,7c-2.1,0.9-4.3,1.5-6.5,2.3c-2.4,1-4.6,2.4-6,4.5c-0.6,0.8-0.9,1.7-1.2,2.6C32.4,29.5,32.5,29.5,32.6,29.5z"
			/>
		
			<linearGradient id="SVGID_8_" gradientUnits="userSpaceOnUse" x1="5.2945" y1="35.1706" x2="16.5877" y2="38.1966" gradientTransform="matrix(1 0 0 -1 0 51.9405)">
			<stop  offset="0" style="stop-color:#00A2FE"/>
			<stop  offset="1" style="stop-color:#9400D3"/>
		</linearGradient>
		<path class="st7" d="M18.9,23.2c-0.3-3.2-1.6-5.8-4.4-7.5c-2.4-1.5-4.9-2.9-7.2-4.5c-1.6-1.2-3-2.6-4.4-3.9
			c0.1,2.4,1.2,4.3,3.1,5.8c1.2,0.9,2.6,1.7,3.9,2.5C13.4,17.6,16.8,19.7,18.9,23.2z"/>
		
			<linearGradient id="SVGID_9_" gradientUnits="userSpaceOnUse" x1="6.3579" y1="29.3227" x2="17.3809" y2="32.2764" gradientTransform="matrix(1 0 0 -1 0 51.9405)">
			<stop  offset="0" style="stop-color:#00A2FE"/>
			<stop  offset="1" style="stop-color:#9400D3"/>
		</linearGradient>
		<path class="st8" d="M19.5,27.9c-0.3-2.1-1.6-3.8-3.5-5.1c-1.2-0.9-2.6-1.6-3.9-2.4c-2.8-1.6-5.6-3.3-7.6-6.2
			c-0.3,1.8,0.3,3.2,1.4,4.4c1.3,1.6,3,2.7,4.8,3.7c1.9,0.9,3.8,1.8,5.6,2.9C17.6,26,18.5,27.1,19.5,27.9z"/>
		
			<linearGradient id="SVGID_10_" gradientUnits="userSpaceOnUse" x1="32.7201" y1="21.3128" x2="51.1379" y2="26.2478" gradientTransform="matrix(1 0 0 -1 0 51.9405)">
			<stop  offset="0" style="stop-color:#00A2FE"/>
			<stop  offset="1" style="stop-color:#9400D3"/>
		</linearGradient>
		<path class="st9" d="M33.6,34c0.3-1.8,1.3-3.2,3-3.9c1.9-0.8,4-1.5,6-2.1c2.1-0.6,4.2-1.4,6-2.9c0.9-0.7,1.5-1.5,1.6-2.9
			c-3.5,2.5-7.5,3.5-11.3,4.9c-1.7,0.6-3.3,1.4-4.5,2.9C33.5,31.3,33.2,32.5,33.6,34z"/>
	</g>
</g>
</svg>
