<?xml version="1.0" encoding="utf-8"?>
<!-- Generator: Adobe Illustrator 25.2.1, SVG Export Plug-In . SVG Version: 6.00 Build 0)  -->
<svg version="1.1" id="Layer_1" xmlns="http://www.w3.org/2000/svg" xmlns:xlink="http://www.w3.org/1999/xlink" x="0px" y="0px"
	 viewBox="0 0 160 216" style="enable-background:new 0 0 160 216;" xml:space="preserve">
<style type="text/css">
	.st0{fill:url(#SVGID_1_);}
	.st1{fill:url(#SVGID_2_);}
	.st2{fill:url(#SVGID_3_);}
	.st3{fill:url(#SVGID_4_);}
	.st4{fill:url(#SVGID_5_);}
	.st5{fill:url(#SVGID_6_);}
	.st6{fill:url(#SVGID_7_);}
	.st7{fill:url(#SVGID_8_);}
	.st8{fill:url(#SVGID_9_);}
	.st9{fill:url(#SVGID_10_);}
	.st10{fill:url(#SVGID_11_);}
	.st11{fill:url(#SVGID_12_);}
	.st12{fill:url(#SVGID_13_);}
	.st13{fill:url(#SVGID_14_);}
	.st14{fill:url(#SVGID_15_);}
	.st15{fill:url(#SVGID_16_);}
	.st16{fill:url(#SVGID_17_);}
	.st17{fill:url(#SVGID_18_);}
	.st18{fill:url(#SVGID_19_);}
	.st19{fill:url(#SVGID_20_);}
	.st20{fill:url(#SVGID_21_);}
	.st21{fill:url(#SVGID_22_);}
	.st22{fill:url(#SVGID_23_);}
	.st23{fill:url(#SVGID_24_);}
	.st24{fill:url(#SVGID_25_);}
	.st25{fill:url(#SVGID_26_);}
	.st26{fill:url(#SVGID_27_);}
	.st27{fill:url(#SVGID_28_);}
	.st28{fill:url(#SVGID_29_);}
	.st29{fill:url(#SVGID_30_);}
	.st30{fill:url(#SVGID_31_);}
	.st31{fill:url(#SVGID_32_);}
	.st32{fill:url(#SVGID_33_);}
	.st33{fill:url(#SVGID_34_);}
	.st34{fill:url(#SVGID_35_);}
	.st35{fill:url(#SVGID_36_);}
	.st36{fill:url(#SVGID_37_);}
	.st37{fill:url(#SVGID_38_);}
	.st38{fill:url(#SVGID_39_);}
	.st39{fill:url(#SVGID_40_);}
	.st40{fill:#343C45;}
	.st41{fill:#52585E;}
	.st42{fill:url(#SVGID_41_);}
	.st43{fill:url(#SVGID_42_);}
	.st44{fill:url(#SVGID_43_);}
	.st45{fill:url(#SVGID_44_);}
	.st46{fill:url(#SVGID_45_);}
	.st47{fill:url(#SVGID_46_);}
	.st48{fill:url(#SVGID_47_);}
	.st49{fill:url(#SVGID_48_);}
	.st50{fill:url(#SVGID_49_);}
	.st51{fill:url(#SVGID_50_);}
</style>
<g>
	
		<linearGradient id="SVGID_1_" gradientUnits="userSpaceOnUse" x1="17.1483" y1="103.0126" x2="81.0985" y2="120.1481" gradientTransform="matrix(1 0 0 -1 0 216.7898)">
		<stop  offset="0" style="stop-color:#00A2FE"/>
		<stop  offset="1" style="stop-color:#9400D3"/>
	</linearGradient>
	<path class="st0" d="M84.3,164.1c-3.4,3-4.1,3.2-7.6,1.1c-19-10.8-32.9-26.2-41.9-46.1c-0.3-0.5-0.4-1.1-0.9-2.1
		c8.8,3.6,16.1,8.4,21.9,16.2c-0.4-4.5-2.2-7.6-4.7-10.5c-4.3-5.1-9.7-8.6-15.5-11.7c-5.9-3.3-11.9-6.6-17.5-10.3
		c-2-1.3-3.4-3.6-5-5.3c-0.3,5.7,2.6,10.9,8.7,15c1.7,1.2,2.6,2.5,3.4,4.5c9.9,26.6,27.4,46.2,52.6,59.3c1.6,0.8,3,1.1,4.6,0
		c5.4-3.4,10.9-6.8,16.5-10.1c0.4-0.3,0.5-0.7,0.5-0.5c-5.5-3.3-11.3-6.1-16.3-9.9C71.4,145,65.2,133.3,64.5,119
		c-0.4-7.4-0.3-14.9-0.5-22.3c-0.5-16.1-7.4-28.5-22-35.8c-6.5-3.3-13.2-6.1-19.8-9c-9-3.7-13-6.6-18.3-12.6c0.4,1.7,0.5,3.4,1.1,5
		c2.6,7.1,7.5,12.4,14.1,15.8s13.2,6.8,19.8,10.1c11.7,5.9,16.7,15.4,16.6,28.5c-0.1,11.1-0.3,22.4,2.9,33.2
		c4.2,14.1,11.5,25.8,25.7,31.9C84.1,163.9,84.2,164,84.3,164.1z"/>
	
		<linearGradient id="SVGID_2_" gradientUnits="userSpaceOnUse" x1="71.2793" y1="101.2756" x2="162.1457" y2="125.6231" gradientTransform="matrix(1 0 0 -1 0 216.7898)">
		<stop  offset="0" style="stop-color:#00A2FE"/>
		<stop  offset="1" style="stop-color:#9400D3"/>
	</linearGradient>
	<path class="st1" d="M148.9,42.7c0.8,8.2-0.8,15.5-5.7,22.1c-6.5,8.4-15.1,13.3-25.2,16.1c-9.6,2.4-18.8,5.4-27.1,10.8
		c-18.3,12.1-20.8,38.9-8.8,53.9c5.4,6.8,12.4,11.2,20.8,13.2c0.9,0.3,2.2-0.3,3-0.9c8.8-7.4,15.4-16.5,20.9-26.5
		c2-3.7,4-7.2,5.9-10.9c0.4-0.8,0.7-1.4,1.3-2.6c-9.4,3.4-18,6.6-26.9,9.9c-1.2,0.4-2.4,1.2-3.4,2c-4.5,3.4-5.1,7.5-1.8,13
		c0-6.5,4.3-8.8,9-10.9c2.6-1.2,5.5-2.1,8.3-3c0.3,0.3,0.5,0.7,0.8,0.9c-3.8,5-7.5,9.9-11.3,14.9c-0.4,0.5-0.9,1.1-1.4,1.6
		c-3,3.3-3.2,3.4-7,1.1c-8.3-5-12.6-12.8-13.6-22.1c-0.8-7.5-0.1-14.8,5.5-20.5c2.9-2.9,5.8-5.8,9.4-7.8c6.6-3.6,13.6-6.8,20.5-9.5
		c10.1-3.7,19.2-8.6,25.2-17.9C152.6,60.7,152.4,51.8,148.9,42.7z"/>
	
		<linearGradient id="SVGID_3_" gradientUnits="userSpaceOnUse" x1="61.9849" y1="133.3002" x2="126.1864" y2="150.503" gradientTransform="matrix(1 0 0 -1 0 216.7898)">
		<stop  offset="0" style="stop-color:#00A2FE"/>
		<stop  offset="1" style="stop-color:#9400D3"/>
	</linearGradient>
	<path class="st2" d="M121.1,75.8c0.4-0.1,0.5-0.1,0.7-0.3c7-6.2,5.9-12.1-2.6-15.7c-0.8-0.3-1.4-0.7-2.2-0.8
		c-4.1-1.1-8-2.4-11.9-4.7c-5.4-3.4-11.9-2.4-17.8-0.8c-3.8,0.9-7.5,2.6-11.1,4.2c-6.3,2.8-12.5,5.7-18.8,8.4
		c8.4,9,11.2,20,11.7,32.1c2.1-9.7,2.4-19.4-1.2-29c3.2-1.6,6.3-3,9.5-4.6c3.4-1.7,6.7-4,10.3-5.3c3.4-1.2,7.1-1.3,10.7-2
		c0,0.3,0.1,0.5,0.1,0.8c-3.3,1.2-6.6,2.2-9.9,3.4c0.1,0.3,0.1,0.4,0.3,0.7c4.5-0.3,8.8-0.7,13.3-0.7c4.3,0.1,8.7,0.7,12.9,1.6
		c-11.3,0.8-20.4,5.5-27.5,14.1c-6.2,7.5-10,16.1-11.7,25.7c4.1-7.1,9.5-12.6,16.7-16.6c0.9-0.5,1.4-2,1.8-3
		c4.2-9.2,12.8-14.8,21.9-14.4C120.8,69.3,122.4,71.3,121.1,75.8z"/>
	
		<linearGradient id="SVGID_4_" gradientUnits="userSpaceOnUse" x1="33.587" y1="146.4876" x2="135.2942" y2="173.7399" gradientTransform="matrix(1 0 0 -1 0 216.7898)">
		<stop  offset="0" style="stop-color:#00A2FE"/>
		<stop  offset="1" style="stop-color:#9400D3"/>
	</linearGradient>
	<path class="st3" d="M27.6,47.8c3.6,1.6,6.6,3,9.7,4.3c0.5,0.3,1.3,0.1,2,0c15.4-4,31-5.5,46.8-4.9c14.4,0.5,28.5,2.8,42.2,7.2
		c1.8,0.7,2.5,1.6,2.9,3.2c0.5,3.3,1.2,6.6,1.8,10.4c2.2-2.1,4.2-3.8,6.1-5.7c0.4-0.4,0.7-1.4,0.5-2.1c-0.4-2.1-1.2-4.3-1.3-6.5
		c-0.3-3.8-2.5-5.3-5.9-6.3c-12.3-3.7-24.8-6.2-37.5-7.4c-22.4-1.8-44.4,0.3-65.9,7.1C28.6,47.4,28.4,47.6,27.6,47.8z"/>
	
		<linearGradient id="SVGID_5_" gradientUnits="userSpaceOnUse" x1="25.4698" y1="63.6734" x2="147.9544" y2="96.4931" gradientTransform="matrix(1 0 0 -1 0 216.7898)">
		<stop  offset="0" style="stop-color:#00A2FE"/>
		<stop  offset="1" style="stop-color:#9400D3"/>
	</linearGradient>
	<path class="st4" d="M145.6,110.9c-3.7,1.7-5.5,4.1-6.7,7.4c-10.8,28.2-30,48.6-57,61.6c-0.9,0.4-2.5,0.4-3.4,0
		c-28.1-13.7-47.4-35-58.1-64.4c-0.9-2.5-3.6-4.3-5.3-6.5c-0.4,0.3-0.7,0.4-1.1,0.7c2.2,5.9,4.2,12.1,7,17.8
		c12.3,26.2,31.9,45.1,58,57.3c0.7,0.3,1.7,0.4,2.4,0.1c31.7-14.9,53.3-38.9,64-72.5C145.3,112.1,145.3,111.7,145.6,110.9z"/>
	
		<linearGradient id="SVGID_6_" gradientUnits="userSpaceOnUse" x1="21.7258" y1="153.1212" x2="141.8013" y2="185.2954" gradientTransform="matrix(1 0 0 -1 0 216.7898)">
		<stop  offset="0" style="stop-color:#00A2FE"/>
		<stop  offset="1" style="stop-color:#9400D3"/>
	</linearGradient>
	<path class="st5" d="M143.9,54.4c0.5-2.1,1.3-4.2,1.7-6.5c0.4-3.4-0.8-5-4.1-6.3c-17-6.5-34.5-9.7-52.7-10.5
		c-25-1.2-49.3,2.6-72.7,11.6c2.2,2.5,4.1,3,7,2c15.7-5.5,31.7-8.4,48.3-9.2c22.8-1.1,44.9,2,66.4,9.5c2.4,0.8,3.7,2,4,4.5
		c0.3,1.7,0.9,3.3,1.3,5C143.5,54.4,143.6,54.4,143.9,54.4z"/>
	
		<linearGradient id="SVGID_7_" gradientUnits="userSpaceOnUse" x1="86.0293" y1="118.0002" x2="162.917" y2="138.6022" gradientTransform="matrix(1 0 0 -1 0 216.7898)">
		<stop  offset="0" style="stop-color:#00A2FE"/>
		<stop  offset="1" style="stop-color:#9400D3"/>
	</linearGradient>
	<path class="st6" d="M92.5,120.4c5.5-10.3,15.8-13.8,25.8-17.3c8.7-3,17.8-5.3,25.6-10.5c13.7-9.2,17.3-22.8,13.2-36.2
		c-0.7,4.1-1.1,8.6-2.2,12.9c-3,10.9-10.7,17.7-20.8,21.6c-6.6,2.6-13.3,4.5-19.9,7.1c-7.4,3-14.1,7.2-18.6,14
		c-1.7,2.4-2.6,5.3-3.8,8C92,120.2,92.2,120.3,92.5,120.4z"/>
	
		<linearGradient id="SVGID_8_" gradientUnits="userSpaceOnUse" x1="8.5993" y1="135.5984" x2="43.2784" y2="144.8906" gradientTransform="matrix(1 0 0 -1 0 216.7898)">
		<stop  offset="0" style="stop-color:#00A2FE"/>
		<stop  offset="1" style="stop-color:#9400D3"/>
	</linearGradient>
	<path class="st7" d="M50.5,101.1c-1.1-9.7-5-17.8-13.6-22.9c-7.5-4.6-15-8.8-22.1-14c-4.9-3.6-9.1-8-13.4-12.1
		C1.7,59.3,5,65.4,10.8,70c3.7,2.9,7.9,5.3,12,7.6C33.5,83.8,43.9,90.1,50.5,101.1z"/>
	
		<linearGradient id="SVGID_9_" gradientUnits="userSpaceOnUse" x1="11.8647" y1="117.6406" x2="45.7143" y2="126.7106" gradientTransform="matrix(1 0 0 -1 0 216.7898)">
		<stop  offset="0" style="stop-color:#00A2FE"/>
		<stop  offset="1" style="stop-color:#9400D3"/>
	</linearGradient>
	<path class="st8" d="M52.3,115.4c-0.9-6.3-5-11.6-10.7-15.5c-3.8-2.6-7.9-5-12-7.4c-8.6-5-17.1-10.1-23.3-19
		c-0.8,5.5,1.1,9.7,4.2,13.6c4.1,5,9.2,8.4,14.9,11.3c5.8,2.9,11.6,5.7,17.1,9C46.3,109.6,49.3,112.8,52.3,115.4z"/>
	
		<linearGradient id="SVGID_10_" gradientUnits="userSpaceOnUse" x1="92.818" y1="93.0435" x2="149.3757" y2="108.198" gradientTransform="matrix(1 0 0 -1 0 216.7898)">
		<stop  offset="0" style="stop-color:#00A2FE"/>
		<stop  offset="1" style="stop-color:#9400D3"/>
	</linearGradient>
	<path class="st9" d="M95.7,134.1c0.9-5.7,4.1-9.7,9.2-11.9c5.9-2.5,12.3-4.5,18.4-6.3c6.6-2,13-4.3,18.4-9c2.6-2.2,4.6-4.7,5-8.8
		c-10.7,7.6-22.9,10.8-34.6,15c-5.3,1.8-10.3,4.2-13.8,8.8C95.3,125.7,94.4,129.6,95.7,134.1z"/>
</g>
</svg>
