<?xml version="1.0" encoding="utf-8"?>
<!-- Generator: Adobe Illustrator 25.2.1, SVG Export Plug-In . SVG Version: 6.00 Build 0)  -->
<svg version="1.1" id="Layer_1" xmlns="http://www.w3.org/2000/svg" xmlns:xlink="http://www.w3.org/1999/xlink" x="0px" y="0px"
	 viewBox="0 0 147 51" style="enable-background:new 0 0 147 51;" xml:space="preserve">
<style type="text/css">
	.st0{fill:#FFFFFF;}
	.st1{fill:#343C45;}
	.st2{fill:url(#SVGID_1_);}
	.st3{fill:url(#SVGID_2_);}
	.st4{fill:url(#SVGID_3_);}
	.st5{fill:url(#SVGID_4_);}
	.st6{fill:url(#SVGID_5_);}
	.st7{fill:url(#SVGID_6_);}
	.st8{fill:url(#SVGID_7_);}
	.st9{fill:url(#SVGID_8_);}
	.st10{fill:url(#SVGID_9_);}
	.st11{fill:url(#SVGID_10_);}
	.st12{fill:url(#SVGID_11_);}
	.st13{fill:url(#SVGID_12_);}
	.st14{fill:url(#SVGID_13_);}
	.st15{fill:url(#SVGID_14_);}
	.st16{fill:url(#SVGID_15_);}
	.st17{fill:url(#SVGID_16_);}
	.st18{fill:url(#SVGID_17_);}
	.st19{fill:url(#SVGID_18_);}
	.st20{fill:url(#SVGID_19_);}
	.st21{fill:url(#SVGID_20_);}
	.st22{fill:url(#SVGID_21_);}
	.st23{fill:url(#SVGID_22_);}
	.st24{fill:url(#SVGID_23_);}
	.st25{fill:url(#SVGID_24_);}
	.st26{fill:url(#SVGID_25_);}
	.st27{fill:url(#SVGID_26_);}
	.st28{fill:url(#SVGID_27_);}
	.st29{fill:url(#SVGID_28_);}
	.st30{fill:url(#SVGID_29_);}
	.st31{fill:url(#SVGID_30_);}
</style>
<g>
	<g>
		<g>
			<path class="st1" d="M59.3,28.4c0.3-0.6,0.4-1.2,0.4-1.8v-0.1c0-1.4-0.6-2.7-1.8-3.7c-0.9-0.7-2-1.1-3.2-1.1h-6.3v0
				c0.8-1,1.6-1.7,2.5-2.2c1.2-0.7,2.5-1,4-1c2.1,0,4,0.8,5.7,2.3c1.6,1.6,2.4,3.6,2.4,5.8c0,1.7-0.5,3.3-1.5,4.7L62,32
				c0.5,0.7,0.4,1.4-0.4,2.2c-0.7,0.5-1.5,0.4-2.3-0.4L59,33.4c-1.3,0.8-2.7,1.2-4.2,1.2c-2.1,0-4-0.8-5.7-2.3
				c-1.6-1.7-2.4-3.6-2.4-5.8c0-0.8,0.1-1.6,0.4-2.4c0.4-0.6,0.8-0.9,1.3-0.9h0.1c0.8,0,1.3,0.4,1.6,1.3c0,0.2,0,0.3,0,0.4
				C50,25.6,50,26.1,50,26.4v0.1c0,1.6,0.7,3,2.1,4c0.8,0.5,1.8,0.8,2.7,0.8c0.8,0,1.6-0.2,2.2-0.6L56.4,30
				c-0.5-0.7-0.4-1.4,0.4-2.2c0.8-0.5,1.5-0.4,2.1,0.2L59.3,28.4z"/>
			<path class="st1" d="M65.9,18.4c1,0,1.5,0.6,1.5,1.7v7.6c0,1.5,0.5,2.5,1.4,3.1c0.1,0.2,0.8,0.3,1.9,0.5h0.1
				c1.1,0,1.9-0.4,2.4-1.1s0.7-1.5,0.7-2.3v-7.9c0-1.1,0.6-1.7,1.7-1.7c1,0.1,1.5,0.6,1.5,1.5v7.7c0,2.9-1.2,5-3.6,6.2
				c-1.1,0.5-2,0.7-2.6,0.7h-0.1c-2.8,0-4.8-1.3-6.1-3.8c-0.4-0.7-0.6-1.9-0.6-3.6v-6.8C64.2,19.1,64.7,18.4,65.9,18.4z"/>
			<path class="st1" d="M78.7,22.4V20c0-0.9,0.5-1.4,1.6-1.6c0.9,0,1.4,0.6,1.6,1.7v0.3c0,0.1,0,0.1,0,0.2l0,12.3
				c0,0.9-0.5,1.4-1.6,1.6c-0.9,0-1.4-0.6-1.6-1.7L78.7,22.4z"/>
			<path class="st1" d="M86.4,24.7l0,8.2c0,0.9-0.5,1.4-1.6,1.6c-0.9,0-1.4-0.6-1.6-1.7l0-10.4V20c0-0.9,0.5-1.4,1.6-1.6
				c0.4,0,0.7,0.1,1,0.3c0.2,0.1,0.4,0.3,0.5,0.5l0.2,0.3c0,0,0.1,0.1,0.1,0.1l6.5,8.6l0-5.8V20c0-0.9,0.5-1.4,1.6-1.6
				c0.9,0,1.4,0.6,1.6,1.7v0.3c0,0.1,0,0.1,0,0.2l0,12.3c0,0.5-0.2,0.9-0.6,1.2c-0.1,0.1-0.1,0.1-0.2,0.2c-0.7,0.5-1.5,0.4-2.3-0.5
				L86.4,24.7z"/>
			<path class="st1" d="M99.1,21.7c-1,0-1.6-0.6-1.8-1.7c0-0.9,0.6-1.4,1.7-1.5c0.1,0,0.1,0,0.2,0l9.5,0c0.9,0,1.4,0.5,1.6,1.6
				c0,0.9-0.6,1.4-1.7,1.6h-1.1v0H99.1z M105.3,31v1.9c0,0.9-0.5,1.5-1.6,1.6c-0.9,0-1.4-0.6-1.6-1.8l0-6.4h0v-1.9
				c0-0.9,0.5-1.5,1.6-1.6c0.9,0,1.4,0.6,1.6,1.8L105.3,31L105.3,31z"/>
			<path class="st1" d="M119.4,18.4c2.1,0,4,0.8,5.7,2.3c1.6,1.6,2.4,3.6,2.4,5.8c0,2.1-0.8,4-2.3,5.7c-1.6,1.6-3.6,2.4-5.8,2.4
				c-2.1,0-4-0.8-5.7-2.3c-1.6-1.7-2.4-3.6-2.4-5.8c0-0.8,0.1-1.6,0.4-2.4c0.4-0.6,0.8-0.9,1.3-0.9h0.1c0.8,0,1.3,0.4,1.6,1.3
				c0,0.2,0,0.3,0,0.4c-0.1,0.7-0.2,1.2-0.2,1.6v0.1c0,1.6,0.7,3,2.1,4c0.8,0.5,1.8,0.8,2.7,0.8c1.6,0,2.9-0.7,4-2.1
				c0.6-0.9,0.9-1.8,0.9-2.8v-0.1c0-1.4-0.6-2.7-1.8-3.7c-0.9-0.7-2-1.1-3.2-1.1h-6.3v0c0.8-1,1.6-1.7,2.5-2.2
				C116.6,18.7,117.9,18.4,119.4,18.4z"/>
			<path class="st1" d="M132.1,24.8l0,8.1c-0.1,1-0.6,1.5-1.6,1.6c-0.9,0-1.4-0.6-1.6-1.7l0-10.4V20c0-0.9,0.5-1.4,1.6-1.6
				c0.4,0,0.7,0.1,1,0.3c0.2,0.1,0.4,0.3,0.5,0.5l0.2,0.3c0,0,0.1,0.1,0.1,0.1l5.3,7.7l5.2-7.7c0-0.1,0.1-0.1,0.1-0.1l0.2-0.3
				c0.2-0.2,0.4-0.4,0.5-0.5c0.3-0.2,0.6-0.3,1-0.3c1.1,0.2,1.7,0.7,1.7,1.6v2.5l0,10.4c-0.1,1.1-0.7,1.7-1.6,1.7
				c-1,0-1.6-0.5-1.6-1.6l0-8.1c-2.6,4-4.1,6.2-4.5,6.5c-0.4,0.3-0.8,0.5-1,0.5s-0.5-0.1-0.8-0.3C136.5,31.4,134.9,29.1,132.1,24.8z
				"/>
		</g>
	</g>
	<g>
		<linearGradient id="SVGID_1_" gradientUnits="userSpaceOnUse" x1="4.5715" y1="26.9429" x2="20.6056" y2="22.6466">
			<stop  offset="0" style="stop-color:#00A2FE"/>
			<stop  offset="1" style="stop-color:#9400D3"/>
		</linearGradient>
		<path class="st2" d="M21.4,39.6c-0.9,0.8-1,0.8-1.9,0.3c-4.8-2.7-8.3-6.6-10.5-11.6c-0.1-0.1-0.1-0.3-0.2-0.5
			c2.2,0.9,4,2.1,5.5,4.1c-0.1-1.1-0.6-1.9-1.2-2.6c-1.1-1.3-2.5-2.2-3.9-2.9c-1.5-0.8-3-1.7-4.4-2.6c-0.5-0.3-0.8-0.9-1.2-1.3
			c-0.1,1.4,0.7,2.7,2.2,3.8c0.4,0.3,0.7,0.6,0.9,1.1c2.5,6.7,6.9,11.6,13.2,14.9c0.4,0.2,0.7,0.3,1.2,0c1.4-0.9,2.7-1.7,4.1-2.6
			c0.1-0.1,0.1-0.2,0.1-0.1c-1.4-0.8-2.8-1.5-4.1-2.5c-2.9-2.2-4.4-5.1-4.6-8.7c-0.1-1.9-0.1-3.7-0.1-5.6c-0.1-4-1.8-7.1-5.5-9
			c-1.6-0.8-3.3-1.5-5-2.3c-2.2-1-3.2-1.7-4.5-3.2c0.1,0.4,0.1,0.9,0.3,1.3c0.7,1.8,1.9,3.1,3.5,4c1.6,0.9,3.3,1.7,5,2.5
			c2.9,1.5,4.2,3.9,4.2,7.1c0,2.8-0.1,5.6,0.7,8.3C16,35,17.8,37.9,21.4,39.6C21.4,39.5,21.4,39.5,21.4,39.6z"/>
		<linearGradient id="SVGID_2_" gradientUnits="userSpaceOnUse" x1="18.1516" y1="27.3643" x2="40.9417" y2="21.2577">
			<stop  offset="0" style="stop-color:#00A2FE"/>
			<stop  offset="1" style="stop-color:#9400D3"/>
		</linearGradient>
		<path class="st3" d="M37.6,9.1c0.2,2-0.2,3.9-1.4,5.5c-1.6,2.1-3.8,3.3-6.3,4c-2.4,0.6-4.7,1.4-6.8,2.8c-4.6,3-5.2,9.7-2.2,13.5
			c1.4,1.7,3.1,2.8,5.2,3.3c0.2,0.1,0.6-0.1,0.8-0.2c2.2-1.9,3.9-4.1,5.2-6.6c0.5-0.9,1-1.8,1.5-2.7c0.1-0.2,0.2-0.4,0.3-0.7
			c-2.3,0.9-4.5,1.7-6.7,2.5c-0.3,0.1-0.6,0.3-0.9,0.5c-1.1,0.9-1.3,1.9-0.5,3.3c0-1.6,1.1-2.2,2.3-2.7c0.7-0.3,1.4-0.5,2.1-0.8
			c0.1,0.1,0.1,0.2,0.2,0.2c-0.9,1.2-1.9,2.5-2.8,3.7c-0.1,0.1-0.2,0.3-0.4,0.4c-0.8,0.8-0.8,0.8-1.7,0.3c-2.1-1.3-3.2-3.2-3.4-5.6
			c-0.2-1.9,0-3.7,1.4-5.1c0.7-0.7,1.5-1.5,2.3-1.9c1.7-0.9,3.4-1.7,5.2-2.4c2.5-0.9,4.8-2.2,6.3-4.5C38.6,13.6,38.5,11.4,37.6,9.1z
			"/>
		<linearGradient id="SVGID_3_" gradientUnits="userSpaceOnUse" x1="15.8328" y1="19.3438" x2="31.918" y2="15.0338">
			<stop  offset="0" style="stop-color:#00A2FE"/>
			<stop  offset="1" style="stop-color:#9400D3"/>
		</linearGradient>
		<path class="st4" d="M30.6,17.4c0.1,0,0.1,0,0.2-0.1c1.7-1.5,1.5-3-0.7-3.9c-0.2-0.1-0.4-0.2-0.6-0.2c-1-0.3-2-0.6-3-1.2
			c-1.4-0.9-3-0.6-4.4-0.2c-1,0.2-1.9,0.7-2.8,1c-1.6,0.7-3.1,1.4-4.7,2.1c2.1,2.2,2.8,5,2.9,8c0.5-2.4,0.6-4.8-0.3-7.3
			c0.8-0.4,1.6-0.8,2.4-1.2c0.9-0.4,1.7-1,2.6-1.3c0.8-0.3,1.8-0.3,2.7-0.5c0,0.1,0,0.1,0,0.2c-0.8,0.3-1.6,0.6-2.5,0.9
			c0,0.1,0,0.1,0.1,0.2c1.1-0.1,2.2-0.2,3.3-0.2c1.1,0,2.2,0.2,3.3,0.4c-2.8,0.2-5.1,1.4-6.9,3.5c-1.6,1.9-2.5,4-2.9,6.5
			c1-1.8,2.4-3.2,4.2-4.2c0.2-0.1,0.4-0.5,0.5-0.8c1.1-2.3,3.2-3.7,5.5-3.6C30.6,15.8,31,16.3,30.6,17.4z"/>
		<linearGradient id="SVGID_4_" gradientUnits="userSpaceOnUse" x1="8.7148" y1="16.035" x2="34.2156" y2="9.2021">
			<stop  offset="0" style="stop-color:#00A2FE"/>
			<stop  offset="1" style="stop-color:#9400D3"/>
		</linearGradient>
		<path class="st5" d="M7.2,10.4c0.9,0.4,1.7,0.8,2.5,1.1c0.1,0.1,0.3,0,0.5,0c3.8-1,7.8-1.4,11.7-1.2c3.6,0.1,7.1,0.7,10.6,1.8
			c0.5,0.2,0.6,0.4,0.7,0.8c0.1,0.8,0.3,1.6,0.5,2.6c0.6-0.5,1-0.9,1.5-1.4c0.1-0.1,0.2-0.4,0.1-0.5c-0.1-0.5-0.3-1.1-0.3-1.6
			c-0.1-0.9-0.6-1.3-1.5-1.6c-3.1-1-6.2-1.6-9.4-1.9C18.4,8,12.9,8.6,7.5,10.3C7.4,10.3,7.4,10.3,7.2,10.4z"/>
		<linearGradient id="SVGID_5_" gradientUnits="userSpaceOnUse" x1="6.6663" y1="36.7977" x2="37.398" y2="28.5632">
			<stop  offset="0" style="stop-color:#00A2FE"/>
			<stop  offset="1" style="stop-color:#9400D3"/>
		</linearGradient>
		<path class="st6" d="M36.8,26.2c-0.9,0.4-1.4,1-1.7,1.9c-2.7,7.1-7.5,12.2-14.3,15.5c-0.2,0.1-0.6,0.1-0.9,0
			c-7-3.4-11.9-8.8-14.6-16.1c-0.2-0.6-0.9-1.1-1.3-1.6c-0.1,0.1-0.2,0.1-0.3,0.2c0.6,1.5,1.1,3,1.7,4.5c3.1,6.6,8,11.3,14.5,14.4
			c0.2,0.1,0.4,0.1,0.6,0c8-3.7,13.4-9.7,16-18.2C36.7,26.5,36.7,26.4,36.8,26.2z"/>
		<linearGradient id="SVGID_6_" gradientUnits="userSpaceOnUse" x1="5.735" y1="14.3692" x2="35.8156" y2="6.3092">
			<stop  offset="0" style="stop-color:#00A2FE"/>
			<stop  offset="1" style="stop-color:#9400D3"/>
		</linearGradient>
		<path class="st7" d="M36.3,12.1c0.1-0.5,0.3-1.1,0.4-1.6c0.1-0.9-0.2-1.3-1-1.6c-4.3-1.6-8.7-2.4-13.2-2.6
			C16.3,5.9,10.2,6.8,4.3,9.1c0.6,0.6,1,0.8,1.8,0.5c3.9-1.4,8-2.1,12.1-2.3C23.9,7,29.5,7.8,34.9,9.7c0.6,0.2,0.9,0.5,1,1.1
			c0.1,0.4,0.2,0.8,0.3,1.2C36.2,12.1,36.3,12.1,36.3,12.1z"/>
		<linearGradient id="SVGID_7_" gradientUnits="userSpaceOnUse" x1="21.8365" y1="23.1507" x2="41.1278" y2="17.9816">
			<stop  offset="0" style="stop-color:#00A2FE"/>
			<stop  offset="1" style="stop-color:#9400D3"/>
		</linearGradient>
		<path class="st8" d="M23.5,28.6c1.4-2.6,4-3.5,6.5-4.3c2.2-0.7,4.4-1.3,6.4-2.7c3.4-2.3,4.3-5.7,3.3-9.1c-0.2,1-0.2,2.2-0.5,3.2
			c-0.8,2.7-2.7,4.4-5.2,5.4c-1.6,0.7-3.4,1.1-5,1.8c-1.8,0.8-3.5,1.8-4.7,3.5c-0.4,0.6-0.7,1.3-1,2C23.3,28.5,23.4,28.5,23.5,28.6z
			"/>
		<linearGradient id="SVGID_8_" gradientUnits="userSpaceOnUse" x1="2.4289" y1="18.7654" x2="11.1239" y2="16.4356">
			<stop  offset="0" style="stop-color:#00A2FE"/>
			<stop  offset="1" style="stop-color:#9400D3"/>
		</linearGradient>
		<path class="st9" d="M12.9,23.7c-0.3-2.4-1.3-4.4-3.4-5.8c-1.9-1.1-3.8-2.2-5.6-3.5c-1.2-0.9-2.3-2-3.4-3C0.7,13.3,1.5,14.8,3,16
			c0.9,0.7,2,1.3,3,1.9C8.7,19.4,11.3,21,12.9,23.7z"/>
		<linearGradient id="SVGID_9_" gradientUnits="userSpaceOnUse" x1="3.2527" y1="23.2576" x2="11.7329" y2="20.9853">
			<stop  offset="0" style="stop-color:#00A2FE"/>
			<stop  offset="1" style="stop-color:#9400D3"/>
		</linearGradient>
		<path class="st10" d="M13.4,27.3c-0.2-1.6-1.2-2.9-2.7-3.9c-1-0.7-2-1.2-3-1.8c-2.2-1.3-4.3-2.5-5.9-4.8c-0.2,1.4,0.3,2.5,1,3.4
			c1,1.2,2.3,2.1,3.7,2.8c1.4,0.7,2.9,1.4,4.3,2.2C11.9,25.9,12.6,26.7,13.4,27.3z"/>
		<linearGradient id="SVGID_10_" gradientUnits="userSpaceOnUse" x1="23.553" y1="29.4361" x2="37.7335" y2="25.6364">
			<stop  offset="0" style="stop-color:#00A2FE"/>
			<stop  offset="1" style="stop-color:#9400D3"/>
		</linearGradient>
		<path class="st11" d="M24.3,32c0.2-1.4,1-2.4,2.3-3c1.5-0.6,3.1-1.1,4.6-1.6c1.7-0.5,3.3-1.1,4.6-2.2c0.6-0.5,1.2-1.2,1.2-2.2
			c-2.7,1.9-5.7,2.7-8.7,3.8c-1.3,0.5-2.6,1.1-3.5,2.2C24.2,29.9,23.9,30.9,24.3,32z"/>
	</g>
</g>
</svg>
