<?xml version="1.0" encoding="utf-8"?>
<!-- Generator: Adobe Illustrator 25.2.1, SVG Export Plug-In . SVG Version: 6.00 Build 0)  -->
<svg version="1.1" id="Layer_1" xmlns="http://www.w3.org/2000/svg" xmlns:xlink="http://www.w3.org/1999/xlink" x="0px" y="0px"
	 viewBox="0 0 368 73" style="enable-background:new 0 0 368 73;" xml:space="preserve">
<style type="text/css">
	.st0{fill:url(#SVGID_1_);}
	.st1{fill:url(#SVGID_2_);}
	.st2{fill:url(#SVGID_3_);}
	.st3{fill:url(#SVGID_4_);}
	.st4{fill:url(#SVGID_5_);}
	.st5{fill:url(#SVGID_6_);}
	.st6{fill:url(#SVGID_7_);}
	.st7{fill:url(#SVGID_8_);}
	.st8{fill:url(#SVGID_9_);}
	.st9{fill:url(#SVGID_10_);}
	.st10{fill:url(#SVGID_11_);}
	.st11{fill:url(#SVGID_12_);}
	.st12{fill:url(#SVGID_13_);}
	.st13{fill:url(#SVGID_14_);}
	.st14{fill:url(#SVGID_15_);}
	.st15{fill:url(#SVGID_16_);}
	.st16{fill:url(#SVGID_17_);}
	.st17{fill:url(#SVGID_18_);}
	.st18{fill:url(#SVGID_19_);}
	.st19{fill:url(#SVGID_20_);}
	.st20{fill:url(#SVGID_21_);}
	.st21{fill:url(#SVGID_22_);}
	.st22{fill:url(#SVGID_23_);}
	.st23{fill:url(#SVGID_24_);}
	.st24{fill:url(#SVGID_25_);}
	.st25{fill:url(#SVGID_26_);}
	.st26{fill:url(#SVGID_27_);}
	.st27{fill:url(#SVGID_28_);}
	.st28{fill:url(#SVGID_29_);}
	.st29{fill:url(#SVGID_30_);}
	.st30{fill:url(#SVGID_31_);}
	.st31{fill:url(#SVGID_32_);}
	.st32{fill:url(#SVGID_33_);}
	.st33{fill:url(#SVGID_34_);}
	.st34{fill:url(#SVGID_35_);}
	.st35{fill:url(#SVGID_36_);}
	.st36{fill:url(#SVGID_37_);}
	.st37{fill:url(#SVGID_38_);}
	.st38{fill:url(#SVGID_39_);}
	.st39{fill:url(#SVGID_40_);}
	.st40{fill:#343C45;}
	.st41{fill:#52585E;}
	.st42{fill:url(#SVGID_41_);}
	.st43{fill:url(#SVGID_42_);}
	.st44{fill:url(#SVGID_43_);}
	.st45{fill:url(#SVGID_44_);}
	.st46{fill:url(#SVGID_45_);}
	.st47{fill:url(#SVGID_46_);}
	.st48{fill:url(#SVGID_47_);}
	.st49{fill:url(#SVGID_48_);}
	.st50{fill:url(#SVGID_49_);}
	.st51{fill:url(#SVGID_50_);}
	.st52{fill:url(#SVGID_51_);}
	.st53{fill:url(#SVGID_52_);}
	.st54{fill:url(#SVGID_53_);}
	.st55{fill:url(#SVGID_54_);}
	.st56{fill:url(#SVGID_55_);}
	.st57{fill:url(#SVGID_56_);}
	.st58{fill:url(#SVGID_57_);}
	.st59{fill:url(#SVGID_58_);}
	.st60{fill:url(#SVGID_59_);}
	.st61{fill:url(#SVGID_60_);}
	.st62{fill:url(#SVGID_61_);}
	.st63{fill:url(#SVGID_62_);}
	.st64{fill:url(#SVGID_63_);}
	.st65{fill:url(#SVGID_64_);}
	.st66{fill:url(#SVGID_65_);}
	.st67{fill:url(#SVGID_66_);}
	.st68{fill:url(#SVGID_67_);}
	.st69{fill:url(#SVGID_68_);}
	.st70{fill:url(#SVGID_69_);}
	.st71{fill:url(#SVGID_70_);}
</style>
<g>
	<g>
		<g>
			<path class="st40" d="M179.4,35.7c0.3-0.7,0.4-1.4,0.4-2.1v-0.2c0-1.7-0.7-3.1-2-4.3c-1-0.9-2.3-1.3-3.8-1.3h-7.3l0,0
				c1-1.1,1.9-2,2.9-2.5c1.4-0.8,2.9-1.2,4.6-1.2c2.5,0,4.7,0.9,6.6,2.7c1.8,1.9,2.8,4.2,2.8,6.7c0,2-0.6,3.8-1.8,5.4l0.7,1
				c0.6,0.8,0.5,1.7-0.4,2.6c-0.8,0.7-1.7,0.5-2.7-0.5l-0.4-0.5c-1.5,0.9-3.1,1.4-4.9,1.4c-2.5,0-4.7-0.9-6.6-2.7
				c-1.8-1.9-2.8-4.2-2.8-6.7c0-1,0.1-1.9,0.4-2.8c0.4-0.7,1-1,1.5-1h0.2c0.9,0,1.5,0.5,1.8,1.5c0,0.2,0,0.3,0,0.4
				c-0.1,0.8-0.2,1.4-0.2,1.8v0.1c0,1.8,0.8,3.5,2.5,4.6c1,0.7,2,1,3.2,1c1,0,1.8-0.2,2.6-0.7l-0.8-1c-0.6-0.8-0.5-1.7,0.4-2.6
				c1-0.6,1.7-0.5,2.5,0.3L179.4,35.7z"/>
			<path class="st40" d="M187.1,24.1c1.2,0,1.8,0.7,1.8,2v8.8c0,1.7,0.5,2.9,1.7,3.6c0.1,0.2,0.9,0.4,2.2,0.6h0.1
				c1.3,0,2.2-0.4,2.8-1.3c0.6-0.8,0.8-1.7,0.8-2.6v-9.1c0-1.3,0.7-2,2-2c1.2,0.2,1.8,0.8,1.8,1.8v8.9c0,3.4-1.4,5.8-4.2,7.3
				c-1.3,0.5-2.3,0.8-3.1,0.8h-0.1c-3.2,0-5.5-1.5-7-4.5c-0.5-0.8-0.7-2.1-0.7-4.2v-7.9C185.1,24.9,185.8,24.1,187.1,24.1z"/>
			<path class="st40" d="M202,28.8V26c0-1,0.7-1.6,1.9-1.8c1.1,0,1.7,0.7,1.8,2v0.4c0,0.1,0,0.1,0,0.2V41c0,1-0.7,1.6-1.9,1.8
				c-1.1,0-1.7-0.7-1.8-2V28.8z"/>
			<path class="st40" d="M211,31.4V41c0,1-0.7,1.6-1.9,1.8c-1.1,0-1.7-0.7-1.8-2v-12V26c0-1,0.7-1.6,1.9-1.8c0.5,0,0.8,0.1,1.1,0.4
				c0.2,0.1,0.4,0.3,0.7,0.5l0.2,0.3c0.1,0.1,0.1,0.1,0.1,0.2l7.5,10v-6.7V26c0-1,0.7-1.6,1.9-1.8c1.1,0,1.7,0.7,1.8,2v0.4
				c0,0.1,0,0.1,0,0.2v14.3c0,0.6-0.2,1.1-0.7,1.4c-0.1,0.1-0.1,0.2-0.2,0.2c-0.8,0.6-1.7,0.4-2.6-0.5L211,31.4z"/>
			<path class="st40" d="M225.7,27.9c-1.2,0-1.9-0.7-2.1-2c0-1.1,0.7-1.7,2-1.8c0.1,0,0.1,0,0.2,0h11.1c1,0,1.6,0.7,1.8,1.9
				c0,1.1-0.7,1.7-2,1.8h-1.3l0,0H225.7z M232.9,38.8V41c0,1.1-0.7,1.7-1.9,1.9c-1.1,0-1.7-0.7-1.8-2.1v-7.4l0,0v-2.2
				c0-1.1,0.7-1.7,1.9-1.9c1.1,0,1.7,0.7,1.8,2.1V38.8L232.9,38.8z"/>
			<path class="st40" d="M249.2,24.1c2.5,0,4.7,0.9,6.6,2.7c1.8,1.9,2.8,4.2,2.8,6.7c0,2.5-0.9,4.7-2.7,6.6
				c-1.9,1.8-4.2,2.8-6.7,2.8c-2.5,0-4.7-0.9-6.6-2.7c-1.8-1.9-2.8-4.2-2.8-6.7c0-1,0.1-1.9,0.4-2.8c0.4-0.7,1-1,1.5-1h0.2
				c0.9,0,1.5,0.5,1.8,1.5c0,0.2,0,0.3,0,0.4c-0.1,0.8-0.2,1.4-0.2,1.8v0.1c0,1.8,0.8,3.5,2.5,4.6c1,0.7,2,1,3.2,1
				c1.8,0,3.3-0.8,4.6-2.4c0.7-1,1-2.1,1-3.2v-0.2c0-1.7-0.7-3.1-2-4.3c-1-0.9-2.3-1.3-3.8-1.3h-7.3l0,0c1-1.1,1.9-2,2.9-2.5
				C246,24.5,247.6,24.1,249.2,24.1z"/>
			<path class="st40" d="M264,31.6V41c-0.1,1.2-0.7,1.8-1.9,1.8c-1.1,0-1.7-0.7-1.8-2v-12V26c0-1,0.7-1.6,1.9-1.8
				c0.5,0,0.8,0.1,1.1,0.4c0.2,0.1,0.4,0.3,0.7,0.5l0.2,0.3c0.1,0.1,0.1,0.1,0.1,0.2l6.2,9l6-8.9c0.1-0.1,0.1-0.1,0.1-0.2l0.2-0.3
				c0.2-0.2,0.4-0.4,0.7-0.5c0.3-0.3,0.7-0.4,1.1-0.4c1.3,0.2,1.9,0.8,1.9,1.8v2.9v12c-0.2,1.3-0.8,2-1.8,2c-1.2,0-1.8-0.6-1.9-1.8
				v-9.4c-3,4.6-4.8,7.2-5.2,7.5s-0.9,0.5-1.1,0.5s-0.6-0.1-1-0.3C269.2,39.2,267.3,36.6,264,31.6z"/>
		</g>
		<g>
			<g>
				<path class="st41" d="M167.9,50.5v0.3h-2.7v1.8h2.4v0.3h-2.4v2h2.7v0.3h-3v-4.6h3V50.5z"/>
				<path class="st41" d="M173.1,53V55h-0.3v-2c0-0.7-0.4-1.1-1.1-1.1c-0.8,0-1.3,0.5-1.3,1.3V55h-0.3v-3.4h0.3v0.9
					c0.2-0.5,0.7-0.9,1.4-0.9C172.6,51.6,173.1,52.1,173.1,53z"/>
				<path class="st41" d="M176.9,54.8c-0.2,0.2-0.5,0.2-0.7,0.2c-0.5,0-0.8-0.3-0.8-1v-2.1h-0.5v-0.2h0.5v-0.8h0.2v0.8h1.1v0.2h-1.1
					v2.1c0,0.5,0.2,0.7,0.5,0.7c0.2,0,0.4-0.1,0.6-0.2L176.9,54.8z"/>
				<path class="st41" d="M181.6,53.4h-3c0.1,0.8,0.6,1.4,1.4,1.4c0.5,0,0.9-0.2,1.1-0.5l0.2,0.2c-0.3,0.4-0.8,0.5-1.3,0.5
					c-1,0-1.7-0.7-1.7-1.7c0-1,0.7-1.7,1.7-1.7C181,51.6,181.6,52.4,181.6,53.4z M181.3,53.1c-0.1-0.8-0.5-1.3-1.3-1.3
					s-1.3,0.5-1.4,1.3H181.3z"/>
				<path class="st41" d="M185.1,51.6v0.3c-0.8,0-1.2,0.5-1.3,1.3V55h-0.3v-3.4h0.3v0.8C184,51.9,184.5,51.7,185.1,51.6z"/>
				<path class="st41" d="M190.2,53.3c0,1-0.7,1.7-1.7,1.7c-0.7,0-1.2-0.4-1.4-0.9v2.1h-0.3v-4.7h0.3v0.9c0.2-0.5,0.8-0.9,1.4-0.9
					C189.5,51.6,190.2,52.3,190.2,53.3z M190,53.3c0-0.8-0.6-1.5-1.4-1.5s-1.4,0.6-1.4,1.5c0,0.9,0.6,1.4,1.4,1.4
					C189.4,54.8,190,54.2,190,53.3z"/>
				<path class="st41" d="M193.7,51.6v0.3c-0.8,0-1.2,0.5-1.3,1.3V55h-0.3v-3.4h0.3v0.8C192.7,51.9,193.1,51.7,193.7,51.6z"/>
				<path class="st41" d="M195.9,50.6c0,0.1-0.1,0.2-0.2,0.2c-0.1,0-0.2-0.1-0.2-0.2c0-0.1,0.1-0.2,0.2-0.2
					C195.7,50.4,195.9,50.5,195.9,50.6z M195.7,51.7V55h-0.3v-3.4H195.7z"/>
				<path class="st41" d="M198.9,51.9c-0.5,0-0.8,0.2-0.8,0.6c0,0.9,2,0.5,2,1.7c0,0.7-0.6,0.9-1.2,0.9c-0.5,0-1-0.2-1.3-0.5
					l0.1-0.2c0.3,0.3,0.7,0.4,1.1,0.4c0.5,0,0.9-0.2,0.9-0.6c0-1-2-0.5-2-1.7c0-0.6,0.5-0.8,1.1-0.8c0.4,0,0.7,0.1,1,0.3l-0.1,0.2
					C199.5,51.9,199.2,51.9,198.9,51.9z"/>
				<path class="st41" d="M204.8,53.4h-3c0.1,0.8,0.6,1.4,1.4,1.4c0.5,0,0.9-0.2,1.1-0.5l0.2,0.2c-0.3,0.4-0.8,0.5-1.3,0.5
					c-1,0-1.7-0.7-1.7-1.7c0-1,0.7-1.7,1.7-1.7C204.3,51.6,204.9,52.4,204.8,53.4z M204.6,53.1c-0.1-0.8-0.5-1.3-1.3-1.3
					s-1.3,0.5-1.4,1.3H204.6z"/>
				<path class="st41" d="M211.1,50.8c-0.7,0-1.2,0.3-1.2,0.8c0,1.4,2.7,0.7,2.7,2.4c0,0.7-0.7,1.2-1.6,1.2c-0.6,0-1.3-0.3-1.6-0.7
					l0.1-0.2c0.4,0.4,1,0.6,1.5,0.6c0.8,0,1.3-0.4,1.3-0.9c0-1.4-2.7-0.7-2.7-2.3c0-0.7,0.6-1.1,1.5-1.1c0.5,0,1,0.2,1.3,0.4
					l-0.1,0.2C211.9,50.8,211.4,50.8,211.1,50.8z"/>
				<path class="st41" d="M217.6,53.4h-3c0.1,0.8,0.6,1.4,1.4,1.4c0.5,0,0.9-0.2,1.1-0.5l0.2,0.2c-0.3,0.4-0.8,0.5-1.3,0.5
					c-1,0-1.7-0.7-1.7-1.7c0-1,0.7-1.7,1.7-1.7C217,51.6,217.6,52.4,217.6,53.4z M217.3,53.1c-0.1-0.8-0.5-1.3-1.3-1.3
					s-1.3,0.5-1.4,1.3H217.3z"/>
				<path class="st41" d="M220.8,51.9c-0.8,0-1.4,0.6-1.4,1.4c0,0.9,0.6,1.5,1.4,1.5c0.5,0,0.8-0.2,1.1-0.5l0.2,0.2
					c-0.3,0.4-0.8,0.5-1.3,0.5c-1,0-1.7-0.7-1.7-1.7c0-1,0.7-1.7,1.7-1.7c0.5,0,0.9,0.2,1.2,0.5l-0.1,0.2
					C221.6,52,221.2,51.9,220.8,51.9z"/>
				<path class="st41" d="M227,51.7V55h-0.3v-0.9c-0.2,0.6-0.7,0.9-1.4,0.9c-0.8,0-1.3-0.5-1.3-1.3v-2.1h0.3v2
					c0,0.7,0.4,1.1,1.1,1.1c0.8,0,1.3-0.6,1.3-1.5v-1.7H227z"/>
				<path class="st41" d="M230.8,51.6v0.3c-0.8,0-1.2,0.5-1.3,1.3V55h-0.3v-3.4h0.3v0.8C229.8,51.9,230.2,51.7,230.8,51.6z"/>
				<path class="st41" d="M233,50.6c0,0.1-0.1,0.2-0.2,0.2s-0.2-0.1-0.2-0.2c0-0.1,0.1-0.2,0.2-0.2S233,50.5,233,50.6z M232.9,51.7
					V55h-0.3v-3.4H232.9z"/>
				<path class="st41" d="M236.8,54.8c-0.2,0.2-0.5,0.2-0.7,0.2c-0.5,0-0.8-0.3-0.8-1v-2.1h-0.5v-0.2h0.5v-0.8h0.2v0.8h1.1v0.2h-1.1
					v2.1c0,0.5,0.2,0.7,0.5,0.7c0.2,0,0.4-0.1,0.6-0.2L236.8,54.8z"/>
				<path class="st41" d="M238.5,56.3c-0.2,0-0.5-0.1-0.7-0.2l0.1-0.2c0.2,0.1,0.3,0.2,0.5,0.2c0.3,0,0.6-0.2,0.7-0.6l0.2-0.4
					l-1.4-3.4h0.3l1.3,3.1l1.3-3.1h0.3l-1.6,3.9C239.2,56.1,238.9,56.3,238.5,56.3z"/>
				<path class="st41" d="M250,52.7c0,1.3-1.1,2.3-2.4,2.3h-1.8v-4.6h1.8C248.9,50.5,250,51.5,250,52.7z M249.7,52.7
					c0-1.1-1-2-2.1-2H246v4.1h1.5C248.8,54.8,249.7,53.9,249.7,52.7z"/>
				<path class="st41" d="M254.8,53.4h-3c0.1,0.8,0.6,1.4,1.4,1.4c0.5,0,0.9-0.2,1.1-0.5l0.2,0.2c-0.3,0.4-0.8,0.5-1.3,0.5
					c-1,0-1.7-0.7-1.7-1.7c0-1,0.7-1.7,1.7-1.7C254.2,51.6,254.8,52.4,254.8,53.4z M254.6,53.1c-0.1-0.8-0.5-1.3-1.3-1.3
					s-1.3,0.5-1.4,1.3H254.6z"/>
				<path class="st41" d="M257.1,50.2V55h-0.3v-4.9H257.1z"/>
				<path class="st41" d="M259.8,50.6c0,0.1-0.1,0.2-0.2,0.2c-0.1,0-0.2-0.1-0.2-0.2c0-0.1,0.1-0.2,0.2-0.2
					C259.7,50.4,259.8,50.5,259.8,50.6z M259.7,51.7V55h-0.3v-3.4H259.7z"/>
				<path class="st41" d="M261.8,51.7l1.3,3.1l1.3-3.1h0.3l-1.4,3.4h-0.3l-1.4-3.4H261.8z"/>
				<path class="st41" d="M268.9,53.4h-3c0.1,0.8,0.6,1.4,1.4,1.4c0.5,0,0.9-0.2,1.1-0.5l0.2,0.2c-0.3,0.4-0.8,0.5-1.3,0.5
					c-1,0-1.7-0.7-1.7-1.7c0-1,0.7-1.7,1.7-1.7C268.3,51.6,269,52.4,268.9,53.4z M268.7,53.1c-0.1-0.8-0.5-1.3-1.3-1.3
					s-1.3,0.5-1.4,1.3H268.7z"/>
				<path class="st41" d="M272.4,51.6v0.3c-0.8,0-1.2,0.5-1.3,1.3V55h-0.3v-3.4h0.3v0.8C271.4,51.9,271.8,51.7,272.4,51.6z"/>
				<path class="st41" d="M277,53.4h-3c0.1,0.8,0.6,1.4,1.4,1.4c0.5,0,0.9-0.2,1.1-0.5l0.2,0.2c-0.3,0.4-0.8,0.5-1.3,0.5
					c-1,0-1.7-0.7-1.7-1.7c0-1,0.7-1.7,1.7-1.7C276.5,51.6,277.1,52.4,277,53.4z M276.8,53.1c-0.1-0.8-0.5-1.3-1.3-1.3
					s-1.3,0.5-1.4,1.3H276.8z"/>
				<path class="st41" d="M282,50.2V55h-0.3v-0.9c-0.2,0.5-0.8,0.9-1.4,0.9c-1,0-1.7-0.7-1.7-1.7c0-1,0.7-1.7,1.7-1.7
					c0.7,0,1.2,0.4,1.5,0.9v-2.3C281.8,50.2,282,50.2,282,50.2z M281.8,53.3c0-0.8-0.6-1.5-1.4-1.5c-0.8,0-1.4,0.6-1.4,1.5
					c0,0.8,0.6,1.5,1.4,1.5C281.2,54.8,281.8,54.2,281.8,53.3z"/>
			</g>
		</g>
	</g>
	<g>
		
			<linearGradient id="SVGID_1_" gradientUnits="userSpaceOnUse" x1="93.1144" y1="34.8269" x2="122.0455" y2="42.579" gradientTransform="matrix(1 0 0 -1 0 73.9405)">
			<stop  offset="0" style="stop-color:#00A2FE"/>
			<stop  offset="1" style="stop-color:#9400D3"/>
		</linearGradient>
		<path class="st0" d="M123.5,61.9c-1.5,1.4-1.8,1.4-3.5,0.5c-8.6-4.9-14.9-11.9-19-20.9c-0.1-0.2-0.2-0.5-0.4-1
			c4,1.6,7.3,3.8,9.9,7.3c-0.2-2-1-3.5-2.1-4.8c-2-2.3-4.4-3.9-7-5.3c-2.7-1.5-5.4-3-7.9-4.6c-0.9-0.6-1.5-1.6-2.3-2.4
			c-0.1,2.6,1.2,4.9,3.9,6.8c0.8,0.5,1.2,1.1,1.5,2c4.5,12,12.4,20.9,23.8,26.8c0.7,0.4,1.4,0.5,2.1,0c2.4-1.5,4.9-3.1,7.4-4.6
			c0.2-0.1,0.2-0.3,0.2-0.2c-2.5-1.5-5.1-2.7-7.4-4.5c-5.2-3.9-8-9.2-8.3-15.7c-0.2-3.3-0.1-6.7-0.2-10.1c-0.2-7.3-3.3-12.9-10-16.2
			c-2.9-1.5-6-2.7-8.9-4.1c-4.1-1.7-5.9-3-8.3-5.7c0.2,0.8,0.2,1.5,0.5,2.3c1.2,3.2,3.4,5.6,6.4,7.2c3,1.5,6,3.1,8.9,4.6
			c5.3,2.7,7.6,7,7.5,12.9c-0.1,5-0.1,10.1,1.3,15c1.9,6.4,5.2,11.7,11.6,14.4C123.4,61.8,123.5,61.8,123.5,61.9z"/>
		
			<linearGradient id="SVGID_2_" gradientUnits="userSpaceOnUse" x1="117.6033" y1="34.0411" x2="158.7111" y2="45.0559" gradientTransform="matrix(1 0 0 -1 0 73.9405)">
			<stop  offset="0" style="stop-color:#00A2FE"/>
			<stop  offset="1" style="stop-color:#9400D3"/>
		</linearGradient>
		<path class="st1" d="M152.7,7c0.4,3.7-0.4,7-2.6,10c-2.9,3.8-6.9,6-11.4,7.3c-4.4,1.1-8.5,2.4-12.3,4.9c-8.3,5.5-9.4,17.6-4,24.4
			c2.4,3.1,5.6,5.1,9.4,6c0.4,0.1,1-0.1,1.4-0.4c4-3.3,7-7.4,9.5-12c0.9-1.7,1.8-3.3,2.7-4.9c0.2-0.4,0.3-0.7,0.6-1.2
			c-4.2,1.5-8.2,3-12.2,4.5c-0.5,0.2-1.1,0.5-1.5,0.9c-2,1.5-2.3,3.4-0.8,5.9c0-2.9,2-4,4.1-4.9c1.2-0.5,2.5-1,3.8-1.4
			c0.1,0.1,0.2,0.3,0.4,0.4c-1.7,2.3-3.4,4.5-5.1,6.7c-0.2,0.2-0.4,0.5-0.7,0.7c-1.4,1.5-1.4,1.5-3.2,0.5c-3.8-2.3-5.7-5.8-6.1-10
			c-0.4-3.4-0.1-6.7,2.5-9.3c1.3-1.3,2.6-2.6,4.2-3.5c3-1.6,6.1-3.1,9.3-4.3c4.6-1.7,8.7-3.9,11.4-8.1
			C154.4,15.1,154.3,11.1,152.7,7z"/>
		
			<linearGradient id="SVGID_3_" gradientUnits="userSpaceOnUse" x1="113.3985" y1="48.529" x2="142.4431" y2="56.3115" gradientTransform="matrix(1 0 0 -1 0 73.9405)">
			<stop  offset="0" style="stop-color:#00A2FE"/>
			<stop  offset="1" style="stop-color:#9400D3"/>
		</linearGradient>
		<path class="st2" d="M140.1,21.9c0.2-0.1,0.2-0.1,0.3-0.1c3.2-2.8,2.7-5.5-1.2-7.1c-0.4-0.1-0.7-0.3-1-0.4
			c-1.8-0.5-3.6-1.1-5.4-2.1c-2.4-1.5-5.4-1.1-8-0.4c-1.7,0.4-3.4,1.2-5,1.9c-2.9,1.3-5.7,2.6-8.5,3.8c3.8,4.1,5.1,9.1,5.3,14.5
			c1-4.4,1.1-8.8-0.5-13.1c1.4-0.7,2.9-1.4,4.3-2.1c1.5-0.8,3-1.8,4.6-2.4c1.5-0.5,3.2-0.6,4.8-0.9c0,0.1,0.1,0.2,0.1,0.4
			c-1.5,0.5-3,1-4.5,1.5c0.1,0.1,0.1,0.2,0.1,0.3c2-0.1,4-0.3,6-0.3c2,0.1,3.9,0.3,5.8,0.7c-5.1,0.4-9.2,2.5-12.5,6.4
			c-2.8,3.4-4.5,7.3-5.3,11.6c1.8-3.2,4.3-5.7,7.6-7.5c0.4-0.2,0.7-0.9,0.8-1.4c1.9-4.2,5.8-6.7,9.9-6.5
			C140,19,140.7,19.9,140.1,21.9z"/>
		
			<linearGradient id="SVGID_4_" gradientUnits="userSpaceOnUse" x1="100.5513" y1="54.4949" x2="146.5635" y2="66.8239" gradientTransform="matrix(1 0 0 -1 0 73.9405)">
			<stop  offset="0" style="stop-color:#00A2FE"/>
			<stop  offset="1" style="stop-color:#9400D3"/>
		</linearGradient>
		<path class="st3" d="M97.8,9.3c1.6,0.7,3,1.4,4.4,2c0.2,0.1,0.6,0.1,0.9,0c7-1.8,14-2.5,21.2-2.2c6.5,0.2,12.9,1.3,19.1,3.3
			c0.8,0.3,1.1,0.7,1.3,1.4c0.2,1.5,0.5,3,0.8,4.7c1-1,1.9-1.7,2.7-2.6c0.2-0.2,0.3-0.7,0.2-1c-0.2-1-0.5-2-0.6-2.9
			c-0.1-1.7-1.1-2.4-2.7-2.9c-5.5-1.7-11.2-2.8-17-3.3C118.1,5,108.1,5.9,98.4,9C98.3,9.1,98.2,9.2,97.8,9.3z"/>
		
			<linearGradient id="SVGID_5_" gradientUnits="userSpaceOnUse" x1="96.8791" y1="17.0299" x2="152.291" y2="31.8775" gradientTransform="matrix(1 0 0 -1 0 73.9405)">
			<stop  offset="0" style="stop-color:#00A2FE"/>
			<stop  offset="1" style="stop-color:#9400D3"/>
		</linearGradient>
		<path class="st4" d="M151.2,37.8c-1.7,0.8-2.5,1.8-3,3.3c-4.9,12.8-13.6,22-25.8,27.9c-0.4,0.2-1.1,0.2-1.5,0
			c-12.7-6.2-21.5-15.9-26.3-29.1c-0.4-1.1-1.6-2-2.4-2.9c-0.2,0.1-0.3,0.2-0.5,0.3c1,2.7,1.9,5.5,3.2,8
			c5.5,11.9,14.4,20.4,26.2,25.9c0.3,0.1,0.8,0.2,1.1,0.1c14.4-6.7,24.1-17.6,29-32.8C151.1,38.4,151.1,38.2,151.2,37.8z"/>
		
			<linearGradient id="SVGID_6_" gradientUnits="userSpaceOnUse" x1="95.1853" y1="57.496" x2="149.5073" y2="72.0515" gradientTransform="matrix(1 0 0 -1 0 73.9405)">
			<stop  offset="0" style="stop-color:#00A2FE"/>
			<stop  offset="1" style="stop-color:#9400D3"/>
		</linearGradient>
		<path class="st5" d="M150.4,12.3c0.2-1,0.6-1.9,0.8-2.9c0.2-1.5-0.4-2.3-1.8-2.9c-7.7-2.9-15.6-4.4-23.8-4.8
			C114.2,1.2,103.3,2.9,92.6,7c1,1.1,1.8,1.4,3.2,0.9c7.1-2.5,14.4-3.8,21.9-4.2C128,3.2,138,4.6,147.7,8c1.1,0.4,1.7,0.9,1.8,2
			c0.1,0.8,0.4,1.5,0.6,2.3C150.3,12.3,150.3,12.3,150.4,12.3z"/>
		
			<linearGradient id="SVGID_7_" gradientUnits="userSpaceOnUse" x1="124.2761" y1="41.6073" x2="159.0601" y2="50.9276" gradientTransform="matrix(1 0 0 -1 0 73.9405)">
			<stop  offset="0" style="stop-color:#00A2FE"/>
			<stop  offset="1" style="stop-color:#9400D3"/>
		</linearGradient>
		<path class="st6" d="M127.2,42.1c2.5-4.6,7.2-6.3,11.7-7.8c3.9-1.4,8-2.4,11.6-4.8c6.2-4.2,7.8-10.3,6-16.4
			c-0.3,1.8-0.5,3.9-1,5.8c-1.4,4.9-4.8,8-9.4,9.8c-3,1.2-6,2-9,3.2c-3.3,1.4-6.4,3.3-8.4,6.3c-0.8,1.1-1.2,2.4-1.7,3.6
			C127,42,127.1,42.1,127.2,42.1z"/>
		
			<linearGradient id="SVGID_8_" gradientUnits="userSpaceOnUse" x1="89.2469" y1="49.5687" x2="104.9357" y2="53.7725" gradientTransform="matrix(1 0 0 -1 0 73.9405)">
			<stop  offset="0" style="stop-color:#00A2FE"/>
			<stop  offset="1" style="stop-color:#9400D3"/>
		</linearGradient>
		<path class="st7" d="M108.2,33.4c-0.5-4.4-2.3-8-6.1-10.4c-3.4-2.1-6.8-4-10-6.3c-2.2-1.6-4.1-3.6-6.1-5.5c0.2,3.3,1.7,6,4.3,8.1
			c1.7,1.3,3.6,2.4,5.4,3.5C100.5,25.5,105.2,28.4,108.2,33.4z"/>
		
			<linearGradient id="SVGID_9_" gradientUnits="userSpaceOnUse" x1="90.7242" y1="41.4446" x2="106.0377" y2="45.5479" gradientTransform="matrix(1 0 0 -1 0 73.9405)">
			<stop  offset="0" style="stop-color:#00A2FE"/>
			<stop  offset="1" style="stop-color:#9400D3"/>
		</linearGradient>
		<path class="st8" d="M109,39.9c-0.4-2.9-2.3-5.2-4.8-7c-1.7-1.2-3.6-2.3-5.4-3.3c-3.9-2.3-7.7-4.6-10.5-8.6
			c-0.4,2.5,0.5,4.4,1.9,6.1c1.8,2.3,4.2,3.8,6.7,5.1c2.6,1.3,5.2,2.6,7.7,4.1C106.3,37.2,107.7,38.7,109,39.9z"/>
		
			<linearGradient id="SVGID_10_" gradientUnits="userSpaceOnUse" x1="127.3473" y1="30.3169" x2="152.9339" y2="37.1728" gradientTransform="matrix(1 0 0 -1 0 73.9405)">
			<stop  offset="0" style="stop-color:#00A2FE"/>
			<stop  offset="1" style="stop-color:#9400D3"/>
		</linearGradient>
		<path class="st9" d="M128.6,48.3c0.4-2.6,1.8-4.4,4.2-5.4c2.7-1.1,5.5-2,8.3-2.9c3-0.9,5.9-2,8.3-4.1c1.2-1,2.1-2.1,2.3-4
			c-4.8,3.5-10.4,4.9-15.7,6.8c-2.4,0.8-4.6,1.9-6.3,4C128.5,44.5,128,46.3,128.6,48.3z"/>
	</g>
</g>
</svg>
