<?xml version="1.0" encoding="utf-8"?>
<!-- Generator: Adobe Illustrator 25.2.1, SVG Export Plug-In . SVG Version: 6.00 Build 0)  -->
<svg version="1.1" id="Layer_1" xmlns="http://www.w3.org/2000/svg" xmlns:xlink="http://www.w3.org/1999/xlink" x="0px" y="0px"
	 viewBox="0 0 305 73" style="enable-background:new 0 0 305 73;" xml:space="preserve">
<style type="text/css">
	.st0{fill:url(#SVGID_1_);}
	.st1{fill:url(#SVGID_2_);}
	.st2{fill:url(#SVGID_3_);}
	.st3{fill:url(#SVGID_4_);}
	.st4{fill:url(#SVGID_5_);}
	.st5{fill:url(#SVGID_6_);}
	.st6{fill:url(#SVGID_7_);}
	.st7{fill:url(#SVGID_8_);}
	.st8{fill:url(#SVGID_9_);}
	.st9{fill:url(#SVGID_10_);}
	.st10{fill:url(#SVGID_11_);}
	.st11{fill:url(#SVGID_12_);}
	.st12{fill:url(#SVGID_13_);}
	.st13{fill:url(#SVGID_14_);}
	.st14{fill:url(#SVGID_15_);}
	.st15{fill:url(#SVGID_16_);}
	.st16{fill:url(#SVGID_17_);}
	.st17{fill:url(#SVGID_18_);}
	.st18{fill:url(#SVGID_19_);}
	.st19{fill:url(#SVGID_20_);}
	.st20{fill:url(#SVGID_21_);}
	.st21{fill:url(#SVGID_22_);}
	.st22{fill:url(#SVGID_23_);}
	.st23{fill:url(#SVGID_24_);}
	.st24{fill:url(#SVGID_25_);}
	.st25{fill:url(#SVGID_26_);}
	.st26{fill:url(#SVGID_27_);}
	.st27{fill:url(#SVGID_28_);}
	.st28{fill:url(#SVGID_29_);}
	.st29{fill:url(#SVGID_30_);}
	.st30{fill:url(#SVGID_31_);}
	.st31{fill:url(#SVGID_32_);}
	.st32{fill:url(#SVGID_33_);}
	.st33{fill:url(#SVGID_34_);}
	.st34{fill:url(#SVGID_35_);}
	.st35{fill:url(#SVGID_36_);}
	.st36{fill:url(#SVGID_37_);}
	.st37{fill:url(#SVGID_38_);}
	.st38{fill:url(#SVGID_39_);}
	.st39{fill:url(#SVGID_40_);}
	.st40{fill:url(#SVGID_41_);}
	.st41{fill:url(#SVGID_42_);}
	.st42{fill:url(#SVGID_43_);}
	.st43{fill:url(#SVGID_44_);}
	.st44{fill:url(#SVGID_45_);}
	.st45{fill:url(#SVGID_46_);}
	.st46{fill:url(#SVGID_47_);}
	.st47{fill:url(#SVGID_48_);}
	.st48{fill:url(#SVGID_49_);}
	.st49{fill:url(#SVGID_50_);}
	.st50{fill:url(#SVGID_51_);}
	.st51{fill:url(#SVGID_52_);}
	.st52{fill:url(#SVGID_53_);}
	.st53{fill:url(#SVGID_54_);}
	.st54{fill:url(#SVGID_55_);}
	.st55{fill:url(#SVGID_56_);}
	.st56{fill:url(#SVGID_57_);}
	.st57{fill:url(#SVGID_58_);}
	.st58{fill:url(#SVGID_59_);}
	.st59{fill:url(#SVGID_60_);}
	.st60{fill:url(#SVGID_61_);}
	.st61{fill:url(#SVGID_62_);}
	.st62{fill:url(#SVGID_63_);}
	.st63{fill:url(#SVGID_64_);}
	.st64{fill:url(#SVGID_65_);}
	.st65{fill:url(#SVGID_66_);}
	.st66{fill:url(#SVGID_67_);}
	.st67{fill:url(#SVGID_68_);}
	.st68{fill:url(#SVGID_69_);}
	.st69{fill:url(#SVGID_70_);}
	.st70{fill:url(#SVGID_71_);}
	.st71{fill:url(#SVGID_72_);}
	.st72{fill:url(#SVGID_73_);}
	.st73{fill:url(#SVGID_74_);}
	.st74{fill:url(#SVGID_75_);}
	.st75{fill:url(#SVGID_76_);}
	.st76{fill:url(#SVGID_77_);}
	.st77{fill:url(#SVGID_78_);}
	.st78{fill:url(#SVGID_79_);}
	.st79{fill:url(#SVGID_80_);}
	.st80{fill:url(#SVGID_81_);}
	.st81{fill:url(#SVGID_82_);}
	.st82{fill:url(#SVGID_83_);}
	.st83{fill:url(#SVGID_84_);}
	.st84{fill:#343C45;}
	.st85{fill:#52585E;}
	.st86{fill:url(#SVGID_85_);}
	.st87{fill:url(#SVGID_86_);}
	.st88{fill:url(#SVGID_87_);}
	.st89{fill:url(#SVGID_88_);}
	.st90{fill:url(#SVGID_89_);}
	.st91{fill:url(#SVGID_90_);}
	.st92{fill:url(#SVGID_91_);}
	.st93{fill:url(#SVGID_92_);}
	.st94{fill:url(#SVGID_93_);}
	.st95{fill:url(#SVGID_94_);}
	.st96{fill:url(#SVGID_95_);}
	.st97{fill:url(#SVGID_96_);}
	.st98{fill:url(#SVGID_97_);}
	.st99{fill:url(#SVGID_98_);}
	.st100{fill:url(#SVGID_99_);}
	.st101{fill:url(#SVGID_100_);}
	.st102{fill:url(#SVGID_101_);}
	.st103{fill:url(#SVGID_102_);}
	.st104{fill:url(#SVGID_103_);}
	.st105{fill:url(#SVGID_104_);}
</style>
<g>
	<linearGradient id="SVGID_1_" gradientUnits="userSpaceOnUse" x1="28.8919" y1="28.9381" x2="67.5726" y2="18.5736">
		<stop  offset="0" style="stop-color:#00A2FE"/>
		<stop  offset="1" style="stop-color:#9400D3"/>
	</linearGradient>
	<path class="st0" d="M58.8,26.9c0.6-1.5,0.9-3,0.9-4.6V22c0-3.6-1.4-6.6-4.3-9.1c-2.2-1.9-4.8-2.8-8-2.8H32l0,0
		C34,7.6,36,5.9,38,4.7c3-1.6,6.2-2.5,9.8-2.5c5.3,0,10,1.9,14.1,5.8c3.9,4.1,6,8.9,6,14.2c0,4.3-1.3,8.1-3.8,11.5l1.5,2
		c1.3,1.8,1,3.6-0.9,5.6c-1.8,1.4-3.7,1-5.7-1l-0.8-1.1c-3.2,1.9-6.6,2.9-10.4,2.9c-5.3,0-10-1.9-14.1-5.8c-3.9-4.1-6-8.9-6-14.2
		c0-2,0.3-4.1,0.9-6c0.9-1.4,2-2.2,3.3-2.2h0.4c1.9,0,3.2,1.1,3.8,3.3c0,0.4,0,0.6,0,0.9c-0.3,1.6-0.5,3-0.5,3.9v0.1
		c0,3.9,1.8,7.4,5.3,9.9c2,1.4,4.3,2,6.7,2c2,0,3.9-0.5,5.6-1.4l-1.6-2c-1.3-1.8-1-3.6,0.9-5.6c2-1.3,3.7-1.1,5.3,0.6L58.8,26.9z"/>
	<linearGradient id="SVGID_2_" gradientUnits="userSpaceOnUse" x1="70.1367" y1="25.4779" x2="105.8553" y2="15.9072">
		<stop  offset="0" style="stop-color:#00A2FE"/>
		<stop  offset="1" style="stop-color:#9400D3"/>
	</linearGradient>
	<path class="st1" d="M75.2,2.3c2.5,0,3.8,1.4,3.8,4.2v18.8c0,3.7,1.1,6.2,3.6,7.6c0.3,0.5,1.9,0.9,4.7,1.3h0.3c2.7,0,4.7-0.9,6-2.7
		s1.8-3.6,1.6-5.6V6.6c0-2.8,1.4-4.2,4.2-4.2c2.5,0.4,3.8,1.6,3.8,3.8v19c0,7.2-2.9,12.4-8.9,15.5c-2.7,1.1-4.8,1.6-6.6,1.6h-0.3
		c-6.8,0-11.8-3.2-15-9.5c-1-1.6-1.5-4.6-1.5-8.9V7.1C71,4,72.4,2.3,75.2,2.3z"/>
	<linearGradient id="SVGID_3_" gradientUnits="userSpaceOnUse" x1="103.1527" y1="24.3721" x2="118.6509" y2="20.2194">
		<stop  offset="0" style="stop-color:#00A2FE"/>
		<stop  offset="1" style="stop-color:#9400D3"/>
	</linearGradient>
	<path class="st2" d="M106.9,12.3V6.3c0-2.2,1.4-3.4,4.1-3.9c2.3,0,3.6,1.4,3.9,4.2v0.9c0,0.1,0,0.3,0,0.5v30.4
		c0,2.2-1.4,3.4-4.1,3.9c-2.3,0-3.6-1.4-3.9-4.2V12.3z"/>
	<linearGradient id="SVGID_4_" gradientUnits="userSpaceOnUse" x1="115.2092" y1="27.7161" x2="153.6314" y2="17.4209">
		<stop  offset="0" style="stop-color:#00A2FE"/>
		<stop  offset="1" style="stop-color:#9400D3"/>
	</linearGradient>
	<path class="st3" d="M126.1,17.9v20.4c0,2.2-1.4,3.4-4.1,3.9c-2.3,0-3.6-1.4-3.9-4.2V12.5V6.4c0-2.2,1.4-3.4,4.1-3.9
		c1,0,1.8,0.3,2.4,0.9c0.5,0.3,0.9,0.6,1.4,1.1l0.5,0.6c0.1,0.1,0.3,0.3,0.3,0.4l16,21.3V12.5V6.4c0-2.2,1.4-3.4,4.1-3.9
		c2.3,0,3.6,1.4,3.9,4.2v0.9c0,0.1,0,0.3,0,0.5v30.4c0,1.3-0.5,2.3-1.4,2.9c-0.1,0.1-0.3,0.4-0.5,0.5c-1.8,1.3-3.7,0.9-5.6-1.1
		L126.1,17.9z"/>
	<linearGradient id="SVGID_5_" gradientUnits="userSpaceOnUse" x1="157.5621" y1="23.7378" x2="187.6434" y2="15.6775">
		<stop  offset="0" style="stop-color:#00A2FE"/>
		<stop  offset="1" style="stop-color:#9400D3"/>
	</linearGradient>
	<path class="st4" d="M157.4,10.4c-2.5,0-4.1-1.4-4.4-4.2c0-2.3,1.4-3.6,4.2-3.8c0.1,0,0.3,0,0.5,0h23.6c2.2,0,3.4,1.4,3.9,4.1
		c0,2.3-1.4,3.6-4.2,3.9h-2.8l0,0H157.4z M172.7,33.5v4.7c0,2.3-1.4,3.6-4.1,4.1c-2.3,0-3.6-1.5-3.9-4.4V22.1l0,0v-4.7
		c0-2.3,1.4-3.6,4.1-4.1c2.3,0,3.6,1.5,3.9,4.4V33.5L172.7,33.5z"/>
	<linearGradient id="SVGID_6_" gradientUnits="userSpaceOnUse" x1="187.9958" y1="27.4217" x2="226.7083" y2="17.0488">
		<stop  offset="0" style="stop-color:#00A2FE"/>
		<stop  offset="1" style="stop-color:#9400D3"/>
	</linearGradient>
	<path class="st5" d="M207.4,2.2c5.3,0,10,1.9,14.1,5.8c3.9,4.1,6,8.9,6,14.2s-1.9,10-5.8,14.1c-4.1,3.9-8.9,6-14.2,6
		s-10-1.9-14.1-5.8c-3.9-4.1-6-8.9-6-14.2c0-2,0.3-4.1,0.9-6c0.9-1.4,2-2.2,3.3-2.2h0.4c1.9,0,3.2,1.1,3.8,3.3c0,0.4,0,0.6,0,0.9
		c-0.3,1.6-0.5,3-0.5,3.9v0.1c0,3.9,1.8,7.4,5.3,9.9c2,1.4,4.3,2,6.7,2c3.9,0,7.1-1.6,9.8-5.1c1.4-2.2,2.2-4.4,2.2-6.8V22
		c0-3.6-1.4-6.6-4.3-9.1c-2.2-1.9-4.8-2.8-8-2.8h-15.5l0,0c2-2.4,4.1-4.2,6.1-5.3C200.6,3.1,203.9,2.2,207.4,2.2z"/>
	<linearGradient id="SVGID_7_" gradientUnits="userSpaceOnUse" x1="228.4163" y1="28.9627" x2="276.7736" y2="16.0054">
		<stop  offset="0" style="stop-color:#00A2FE"/>
		<stop  offset="1" style="stop-color:#9400D3"/>
	</linearGradient>
	<path class="st6" d="M238.9,18.3v20c-0.1,2.5-1.5,3.8-4.1,3.9c-2.3,0-3.6-1.4-3.9-4.2V12.5V6.4c0-2.2,1.4-3.4,4.1-3.9
		c1,0,1.8,0.3,2.4,0.9c0.5,0.3,0.9,0.6,1.4,1.1l0.5,0.6c0.1,0.1,0.3,0.3,0.3,0.4l13.2,19.2l12.7-19c0.1-0.1,0.3-0.3,0.3-0.4l0.5-0.6
		c0.5-0.5,0.9-0.9,1.4-1.1c0.6-0.6,1.4-0.9,2.4-0.9c2.8,0.4,4.1,1.8,4.1,3.9v6.1v25.6c-0.4,2.8-1.6,4.2-3.9,4.2
		c-2.5,0-3.9-1.3-4.1-3.9v-20c-6.3,9.9-10.1,15.2-11.2,16c-1,0.8-1.9,1.1-2.4,1.1c-0.5,0-1.3-0.3-2-0.6
		C249.8,34.4,245.9,28.8,238.9,18.3z"/>
</g>
<g>
	<g>
		<linearGradient id="SVGID_8_" gradientUnits="userSpaceOnUse" x1="27.1981" y1="67.5718" x2="35.3783" y2="59.3917">
			<stop  offset="0" style="stop-color:#00A2FE"/>
			<stop  offset="1" style="stop-color:#9400D3"/>
		</linearGradient>
		<path class="st7" d="M34.4,58.4V59h-5.7v3.9h5.1v0.6h-5.1v4.2h5.8v0.6H28v-9.8h6.3V58.4z"/>
		<linearGradient id="SVGID_9_" gradientUnits="userSpaceOnUse" x1="38.7391" y1="67.9523" x2="44.8742" y2="61.8172">
			<stop  offset="0" style="stop-color:#00A2FE"/>
			<stop  offset="1" style="stop-color:#9400D3"/>
		</linearGradient>
		<path class="st8" d="M45.4,63.7v4.4h-0.6v-4.3c0-1.5-0.9-2.4-2.4-2.4c-1.6,0-2.7,1.1-2.8,2.8v3.9h-0.6v-7.2h0.6v1.9
			c0.5-1.1,1.5-1.9,2.9-1.9C44.4,60.8,45.4,61.9,45.4,63.7z"/>
		<linearGradient id="SVGID_10_" gradientUnits="userSpaceOnUse" x1="49.2547" y1="66.1241" x2="53.7994" y2="61.5794">
			<stop  offset="0" style="stop-color:#00A2FE"/>
			<stop  offset="1" style="stop-color:#9400D3"/>
		</linearGradient>
		<path class="st9" d="M53.5,67.6c-0.5,0.4-1,0.5-1.5,0.5c-1,0-1.6-0.6-1.6-2v-4.6h-1V61h1v-1.8h0.5V61h2.4v0.5h-2.4v4.6
			c0,1,0.4,1.5,1.1,1.5c0.4,0,0.9-0.1,1.3-0.4L53.5,67.6z"/>
		<linearGradient id="SVGID_11_" gradientUnits="userSpaceOnUse" x1="57.5563" y1="66.9695" x2="62.6224" y2="61.9034">
			<stop  offset="0" style="stop-color:#00A2FE"/>
			<stop  offset="1" style="stop-color:#9400D3"/>
		</linearGradient>
		<path class="st10" d="M63.4,64.6h-6.3c0.1,1.8,1.3,2.9,3,2.9c1,0,1.9-0.4,2.4-1l0.4,0.4c-0.6,0.8-1.6,1.1-2.8,1.1
			c-2,0-3.6-1.5-3.6-3.7c0-2.2,1.5-3.7,3.6-3.7C62.1,60.8,63.5,62.4,63.4,64.6z M62.9,64.1c-0.1-1.6-1.1-2.8-2.8-2.8
			s-2.8,1.1-2.9,2.8H62.9z"/>
		<linearGradient id="SVGID_12_" gradientUnits="userSpaceOnUse" x1="65.9428" y1="66.4938" x2="71.2694" y2="61.1672">
			<stop  offset="0" style="stop-color:#00A2FE"/>
			<stop  offset="1" style="stop-color:#9400D3"/>
		</linearGradient>
		<path class="st11" d="M70.9,60.8v0.6c-1.6,0-2.5,1-2.7,2.8v3.9h-0.6v-7.2h0.6v1.8C68.6,61.5,69.6,60.9,70.9,60.8z"/>
		<linearGradient id="SVGID_13_" gradientUnits="userSpaceOnUse" x1="72.7044" y1="68.9434" x2="80.3304" y2="61.3175">
			<stop  offset="0" style="stop-color:#00A2FE"/>
			<stop  offset="1" style="stop-color:#9400D3"/>
		</linearGradient>
		<path class="st12" d="M81.8,64.5c0,2.2-1.4,3.7-3.6,3.7c-1.4,0-2.5-0.8-3-1.9v4.6h-0.6v-10h0.6v1.9c0.5-1.1,1.6-1.9,3-1.9
			C80.4,60.8,81.8,62.3,81.8,64.5z M81.3,64.5c0-1.8-1.3-3.2-3-3.2c-1.8,0-3,1.3-3,3.2c0,1.9,1.3,3,3,3C80,67.6,81.3,66.2,81.3,64.5
			z"/>
		<linearGradient id="SVGID_14_" gradientUnits="userSpaceOnUse" x1="84.3322" y1="66.4938" x2="89.6588" y2="61.1672">
			<stop  offset="0" style="stop-color:#00A2FE"/>
			<stop  offset="1" style="stop-color:#9400D3"/>
		</linearGradient>
		<path class="st13" d="M89.3,60.8v0.6c-1.6,0-2.5,1-2.7,2.8v3.9H86v-7.2h0.6v1.8C87.1,61.5,88,60.9,89.3,60.8z"/>
		<linearGradient id="SVGID_15_" gradientUnits="userSpaceOnUse" x1="90.6893" y1="65.8756" x2="95.9208" y2="60.6441">
			<stop  offset="0" style="stop-color:#00A2FE"/>
			<stop  offset="1" style="stop-color:#9400D3"/>
		</linearGradient>
		<path class="st14" d="M93.8,58.8c0,0.3-0.3,0.5-0.5,0.5c-0.3,0-0.5-0.3-0.5-0.5c0-0.3,0.3-0.5,0.5-0.5
			C93.6,58.3,93.8,58.5,93.8,58.8z M93.6,60.9v7.2H93v-7.2H93.6z"/>
		<linearGradient id="SVGID_16_" gradientUnits="userSpaceOnUse" x1="97.5992" y1="67.2052" x2="102.799" y2="62.0055">
			<stop  offset="0" style="stop-color:#00A2FE"/>
			<stop  offset="1" style="stop-color:#9400D3"/>
		</linearGradient>
		<path class="st15" d="M100.3,61.4c-1,0-1.8,0.4-1.8,1.3c0,1.9,4.2,1,4.2,3.6c0,1.4-1.3,1.9-2.5,1.9c-1,0-2-0.4-2.7-1l0.3-0.5
			c0.6,0.6,1.5,0.9,2.4,0.9c1,0,1.9-0.4,1.9-1.3c0-2-4.2-1.1-4.2-3.6c0-1.3,1.1-1.8,2.4-1.8c0.8,0,1.5,0.3,2,0.6l-0.3,0.5
			C101.6,61.5,100.9,61.4,100.3,61.4z"/>
		<linearGradient id="SVGID_17_" gradientUnits="userSpaceOnUse" x1="107.0176" y1="66.9695" x2="112.1098" y2="61.8773">
			<stop  offset="0" style="stop-color:#00A2FE"/>
			<stop  offset="1" style="stop-color:#9400D3"/>
		</linearGradient>
		<path class="st16" d="M112.9,64.6h-6.3c0.1,1.8,1.3,2.9,3,2.9c1,0,1.9-0.4,2.4-1l0.4,0.4c-0.6,0.8-1.6,1.1-2.8,1.1
			c-2,0-3.6-1.5-3.6-3.7c0-2.2,1.5-3.7,3.6-3.7C111.7,60.8,113,62.4,112.9,64.6z M112.4,64.1c-0.1-1.6-1.1-2.8-2.8-2.8
			s-2.8,1.1-2.9,2.8H112.4z"/>
		<linearGradient id="SVGID_18_" gradientUnits="userSpaceOnUse" x1="122.5609" y1="66.929" x2="129.5996" y2="59.8903">
			<stop  offset="0" style="stop-color:#00A2FE"/>
			<stop  offset="1" style="stop-color:#9400D3"/>
		</linearGradient>
		<path class="st17" d="M126.2,59c-1.5,0-2.5,0.6-2.5,1.6c0,2.9,5.7,1.4,5.7,5.1c0,1.5-1.4,2.5-3.4,2.5c-1.3,0-2.7-0.6-3.4-1.4
			l0.3-0.5c0.8,0.8,2,1.3,3.2,1.3c1.6,0,2.8-0.8,2.8-1.9c0-3-5.7-1.5-5.7-4.9c0-1.4,1.3-2.3,3.2-2.3c1,0,2,0.4,2.8,0.8l-0.3,0.5
			C128,59.1,126.9,59,126.2,59z"/>
		<linearGradient id="SVGID_19_" gradientUnits="userSpaceOnUse" x1="134.1579" y1="66.9695" x2="139.2032" y2="61.9242">
			<stop  offset="0" style="stop-color:#00A2FE"/>
			<stop  offset="1" style="stop-color:#9400D3"/>
		</linearGradient>
		<path class="st18" d="M140,64.6h-6.3c0.1,1.8,1.3,2.9,3,2.9c1,0,1.9-0.4,2.4-1l0.4,0.4c-0.6,0.8-1.6,1.1-2.8,1.1
			c-2,0-3.6-1.5-3.6-3.7c0-2.2,1.5-3.7,3.6-3.7C138.7,60.8,140,62.4,140,64.6z M139.4,64.1c-0.1-1.6-1.1-2.8-2.8-2.8
			c-1.6,0-2.8,1.1-2.9,2.8H139.4z"/>
		<linearGradient id="SVGID_20_" gradientUnits="userSpaceOnUse" x1="144.3038" y1="67.0964" x2="149.4958" y2="61.9043">
			<stop  offset="0" style="stop-color:#00A2FE"/>
			<stop  offset="1" style="stop-color:#9400D3"/>
		</linearGradient>
		<path class="st19" d="M146.9,61.4c-1.8,0-3,1.3-3,3c0,1.9,1.3,3.2,3,3.2c1,0,1.8-0.4,2.4-1l0.4,0.4c-0.6,0.8-1.6,1.1-2.8,1.1
			c-2,0-3.6-1.5-3.6-3.7c0-2.2,1.5-3.7,3.6-3.7c1,0,1.9,0.4,2.5,1l-0.3,0.5C148.6,61.7,147.9,61.4,146.9,61.4z"/>
		<linearGradient id="SVGID_21_" gradientUnits="userSpaceOnUse" x1="154.2121" y1="67.1913" x2="160.268" y2="61.1355">
			<stop  offset="0" style="stop-color:#00A2FE"/>
			<stop  offset="1" style="stop-color:#9400D3"/>
		</linearGradient>
		<path class="st20" d="M160,60.9v7.2h-0.6v-1.9c-0.5,1.3-1.5,1.9-2.9,1.9c-1.8,0-2.8-1-2.8-2.8v-4.4h0.6v4.3c0,1.5,0.9,2.4,2.3,2.4
			c1.8,0,2.8-1.3,2.8-3.2v-3.6H160z"/>
		<linearGradient id="SVGID_22_" gradientUnits="userSpaceOnUse" x1="163.3434" y1="66.4938" x2="168.67" y2="61.1672">
			<stop  offset="0" style="stop-color:#00A2FE"/>
			<stop  offset="1" style="stop-color:#9400D3"/>
		</linearGradient>
		<path class="st21" d="M168.3,60.8v0.6c-1.6,0-2.5,1-2.7,2.8v3.9H165v-7.2h0.6v1.8C166.1,61.5,167,60.9,168.3,60.8z"/>
		<linearGradient id="SVGID_23_" gradientUnits="userSpaceOnUse" x1="169.7005" y1="65.8756" x2="174.9319" y2="60.6441">
			<stop  offset="0" style="stop-color:#00A2FE"/>
			<stop  offset="1" style="stop-color:#9400D3"/>
		</linearGradient>
		<path class="st22" d="M172.9,58.8c0,0.3-0.3,0.5-0.5,0.5s-0.5-0.3-0.5-0.5c0-0.3,0.3-0.5,0.5-0.5S172.9,58.5,172.9,58.8z
			 M172.6,60.9v7.2H172v-7.2H172.6z"/>
		<linearGradient id="SVGID_24_" gradientUnits="userSpaceOnUse" x1="176.7126" y1="66.1241" x2="181.2573" y2="61.5794">
			<stop  offset="0" style="stop-color:#00A2FE"/>
			<stop  offset="1" style="stop-color:#9400D3"/>
		</linearGradient>
		<path class="st23" d="M181,67.6c-0.5,0.4-1,0.5-1.5,0.5c-1,0-1.6-0.6-1.6-2v-4.6h-1V61h1v-1.8h0.5V61h2.4v0.5h-2.4v4.6
			c0,1,0.4,1.5,1.1,1.5c0.4,0,0.9-0.1,1.3-0.4L181,67.6z"/>
		<linearGradient id="SVGID_25_" gradientUnits="userSpaceOnUse" x1="181.6249" y1="68.7955" x2="189.7416" y2="60.6788">
			<stop  offset="0" style="stop-color:#00A2FE"/>
			<stop  offset="1" style="stop-color:#9400D3"/>
		</linearGradient>
		<path class="st24" d="M184.6,70.8c-0.5,0-1-0.1-1.4-0.4l0.3-0.5c0.4,0.3,0.6,0.4,1.1,0.4c0.6,0,1.3-0.5,1.5-1.3l0.4-0.8l-3-7.2
			h0.6l2.7,6.6l2.7-6.6h0.6l-3.4,8.4C186.2,70.3,185.5,70.8,184.6,70.8z"/>
		<linearGradient id="SVGID_26_" gradientUnits="userSpaceOnUse" x1="199.1757" y1="67.0691" x2="206.9993" y2="59.2455">
			<stop  offset="0" style="stop-color:#00A2FE"/>
			<stop  offset="1" style="stop-color:#9400D3"/>
		</linearGradient>
		<path class="st25" d="M209,63.2c0,2.7-2.3,4.8-5.1,4.8h-3.8v-9.8h3.9C206.7,58.4,209,60.5,209,63.2z M208.4,63.2
			c0-2.4-2-4.3-4.4-4.3h-3.3v8.6h3.3C206.5,67.5,208.4,65.6,208.4,63.2z"/>
		<linearGradient id="SVGID_27_" gradientUnits="userSpaceOnUse" x1="213.4227" y1="66.9696" x2="218.468" y2="61.9242">
			<stop  offset="0" style="stop-color:#00A2FE"/>
			<stop  offset="1" style="stop-color:#9400D3"/>
		</linearGradient>
		<path class="st26" d="M219.3,64.6h-6.3c0.1,1.8,1.3,2.9,3,2.9c1,0,1.9-0.4,2.4-1l0.4,0.4c-0.6,0.8-1.6,1.1-2.8,1.1
			c-2,0-3.6-1.5-3.6-3.7c0-2.2,1.5-3.7,3.6-3.7C218,60.8,219.3,62.4,219.3,64.6z M218.8,64.1c-0.1-1.6-1.1-2.8-2.8-2.8
			c-1.6,0-2.8,1.1-2.9,2.8H218.8z"/>
		<linearGradient id="SVGID_28_" gradientUnits="userSpaceOnUse" x1="221.0165" y1="65.7012" x2="226.5334" y2="60.1843">
			<stop  offset="0" style="stop-color:#00A2FE"/>
			<stop  offset="1" style="stop-color:#9400D3"/>
		</linearGradient>
		<path class="st27" d="M224.1,57.7v10.4h-0.6V57.7H224.1z"/>
		<linearGradient id="SVGID_29_" gradientUnits="userSpaceOnUse" x1="226.8663" y1="65.8438" x2="232.0344" y2="60.6758">
			<stop  offset="0" style="stop-color:#00A2FE"/>
			<stop  offset="1" style="stop-color:#9400D3"/>
		</linearGradient>
		<path class="st28" d="M229.9,58.8c0,0.3-0.3,0.5-0.5,0.5c-0.3,0-0.5-0.3-0.5-0.5c0-0.3,0.3-0.5,0.5-0.5
			C229.7,58.3,229.9,58.5,229.9,58.8z M229.8,60.9v7.2h-0.6v-7.2H229.8z"/>
		<linearGradient id="SVGID_30_" gradientUnits="userSpaceOnUse" x1="234.1428" y1="65.7646" x2="239.5328" y2="60.3746">
			<stop  offset="0" style="stop-color:#00A2FE"/>
			<stop  offset="1" style="stop-color:#9400D3"/>
		</linearGradient>
		<path class="st29" d="M234.1,60.9l2.7,6.6l2.7-6.6h0.6l-2.9,7.2h-0.6l-2.9-7.2H234.1z"/>
		<linearGradient id="SVGID_31_" gradientUnits="userSpaceOnUse" x1="243.4799" y1="66.9696" x2="248.546" y2="61.9034">
			<stop  offset="0" style="stop-color:#00A2FE"/>
			<stop  offset="1" style="stop-color:#9400D3"/>
		</linearGradient>
		<path class="st30" d="M249.3,64.6H243c0.1,1.8,1.3,2.9,3,2.9c1,0,1.9-0.4,2.4-1l0.4,0.4c-0.6,0.8-1.6,1.1-2.8,1.1
			c-2,0-3.6-1.5-3.6-3.7c0-2.2,1.5-3.7,3.6-3.7C248.1,60.8,249.5,62.4,249.3,64.6z M248.8,64.1c-0.1-1.6-1.1-2.8-2.8-2.8
			c-1.6,0-2.8,1.1-2.9,2.8H248.8z"/>
		<linearGradient id="SVGID_32_" gradientUnits="userSpaceOnUse" x1="251.8664" y1="66.4938" x2="257.193" y2="61.1672">
			<stop  offset="0" style="stop-color:#00A2FE"/>
			<stop  offset="1" style="stop-color:#9400D3"/>
		</linearGradient>
		<path class="st31" d="M256.8,60.8v0.6c-1.6,0-2.5,1-2.7,2.8v3.9h-0.6v-7.2h0.6v1.8C254.5,61.5,255.5,60.9,256.8,60.8z"/>
		<linearGradient id="SVGID_33_" gradientUnits="userSpaceOnUse" x1="260.728" y1="66.9696" x2="265.8202" y2="61.8773">
			<stop  offset="0" style="stop-color:#00A2FE"/>
			<stop  offset="1" style="stop-color:#9400D3"/>
		</linearGradient>
		<path class="st32" d="M266.6,64.6h-6.3c0.1,1.8,1.3,2.9,3,2.9c1,0,1.9-0.4,2.4-1l0.4,0.4c-0.6,0.8-1.6,1.1-2.8,1.1
			c-2,0-3.6-1.5-3.6-3.7c0-2.2,1.5-3.7,3.6-3.7C265.4,60.8,266.7,62.4,266.6,64.6z M266.1,64.1c-0.1-1.6-1.1-2.8-2.8-2.8
			s-2.8,1.1-2.9,2.8H266.1z"/>
		<linearGradient id="SVGID_34_" gradientUnits="userSpaceOnUse" x1="271.504" y1="67.5997" x2="279.2959" y2="59.8077">
			<stop  offset="0" style="stop-color:#00A2FE"/>
			<stop  offset="1" style="stop-color:#9400D3"/>
		</linearGradient>
		<path class="st33" d="M277.2,57.7v10.4h-0.6v-1.9c-0.5,1.1-1.6,1.9-3,1.9c-2,0-3.6-1.5-3.6-3.7c0-2.2,1.5-3.7,3.6-3.7
			c1.4,0,2.5,0.8,3.2,1.9v-4.9C276.7,57.7,277.2,57.7,277.2,57.7z M276.7,64.5c0-1.8-1.3-3.2-3-3.2c-1.8,0-3,1.3-3,3.2
			c0,1.8,1.3,3.2,3,3.2C275.5,67.6,276.7,66.4,276.7,64.5z"/>
	</g>
</g>
</svg>
