<?xml version="1.0" encoding="utf-8"?>
<!-- Generator: Adobe Illustrator 25.2.1, SVG Export Plug-In . SVG Version: 6.00 Build 0)  -->
<svg version="1.1" id="Layer_1" xmlns="http://www.w3.org/2000/svg" xmlns:xlink="http://www.w3.org/1999/xlink" x="0px" y="0px"
	 viewBox="0 0 69 74" style="enable-background:new 0 0 69 74;" xml:space="preserve">
<style type="text/css">
	.st0{fill:url(#SVGID_1_);}
	.st1{fill:url(#SVGID_2_);}
	.st2{fill:url(#SVGID_3_);}
	.st3{fill:url(#SVGID_4_);}
	.st4{fill:url(#SVGID_5_);}
	.st5{fill:url(#SVGID_6_);}
	.st6{fill:url(#SVGID_7_);}
	.st7{fill:url(#SVGID_8_);}
	.st8{fill:url(#SVGID_9_);}
	.st9{fill:url(#SVGID_10_);}
	.st10{fill:url(#SVGID_11_);}
	.st11{fill:url(#SVGID_12_);}
	.st12{fill:url(#SVGID_13_);}
	.st13{fill:url(#SVGID_14_);}
	.st14{fill:url(#SVGID_15_);}
	.st15{fill:url(#SVGID_16_);}
	.st16{fill:url(#SVGID_17_);}
	.st17{fill:url(#SVGID_18_);}
	.st18{fill:url(#SVGID_19_);}
	.st19{fill:url(#SVGID_20_);}
	.st20{fill:url(#SVGID_21_);}
	.st21{fill:url(#SVGID_22_);}
	.st22{fill:url(#SVGID_23_);}
	.st23{fill:url(#SVGID_24_);}
	.st24{fill:url(#SVGID_25_);}
	.st25{fill:url(#SVGID_26_);}
	.st26{fill:url(#SVGID_27_);}
	.st27{fill:url(#SVGID_28_);}
	.st28{fill:url(#SVGID_29_);}
	.st29{fill:url(#SVGID_30_);}
	.st30{fill:url(#SVGID_31_);}
	.st31{fill:url(#SVGID_32_);}
	.st32{fill:url(#SVGID_33_);}
	.st33{fill:url(#SVGID_34_);}
	.st34{fill:url(#SVGID_35_);}
	.st35{fill:url(#SVGID_36_);}
	.st36{fill:url(#SVGID_37_);}
	.st37{fill:url(#SVGID_38_);}
	.st38{fill:url(#SVGID_39_);}
	.st39{fill:url(#SVGID_40_);}
	.st40{fill:url(#SVGID_41_);}
	.st41{fill:url(#SVGID_42_);}
	.st42{fill:url(#SVGID_43_);}
	.st43{fill:url(#SVGID_44_);}
	.st44{fill:url(#SVGID_45_);}
	.st45{fill:url(#SVGID_46_);}
	.st46{fill:url(#SVGID_47_);}
	.st47{fill:url(#SVGID_48_);}
	.st48{fill:url(#SVGID_49_);}
	.st49{fill:url(#SVGID_50_);}
	.st50{fill:url(#SVGID_51_);}
	.st51{fill:url(#SVGID_52_);}
	.st52{fill:url(#SVGID_53_);}
	.st53{fill:url(#SVGID_54_);}
	.st54{fill:url(#SVGID_55_);}
	.st55{fill:url(#SVGID_56_);}
	.st56{fill:url(#SVGID_57_);}
	.st57{fill:url(#SVGID_58_);}
	.st58{fill:url(#SVGID_59_);}
	.st59{fill:url(#SVGID_60_);}
	.st60{fill:url(#SVGID_61_);}
	.st61{fill:url(#SVGID_62_);}
	.st62{fill:url(#SVGID_63_);}
	.st63{fill:url(#SVGID_64_);}
	.st64{fill:url(#SVGID_65_);}
	.st65{fill:url(#SVGID_66_);}
	.st66{fill:url(#SVGID_67_);}
	.st67{fill:url(#SVGID_68_);}
	.st68{fill:url(#SVGID_69_);}
	.st69{fill:url(#SVGID_70_);}
	.st70{fill:url(#SVGID_71_);}
	.st71{fill:url(#SVGID_72_);}
	.st72{fill:url(#SVGID_73_);}
	.st73{fill:url(#SVGID_74_);}
	.st74{fill:url(#SVGID_75_);}
	.st75{fill:url(#SVGID_76_);}
	.st76{fill:url(#SVGID_77_);}
	.st77{fill:url(#SVGID_78_);}
	.st78{fill:url(#SVGID_79_);}
	.st79{fill:url(#SVGID_80_);}
	.st80{fill:url(#SVGID_81_);}
	.st81{fill:url(#SVGID_82_);}
	.st82{fill:url(#SVGID_83_);}
	.st83{fill:url(#SVGID_84_);}
	.st84{fill:#FFFFFF;}
	.st85{fill:#343C45;}
	.st86{fill:#52585E;}
	.st87{fill:url(#SVGID_85_);}
	.st88{fill:url(#SVGID_86_);}
	.st89{fill:url(#SVGID_87_);}
	.st90{fill:url(#SVGID_88_);}
	.st91{fill:url(#SVGID_89_);}
	.st92{fill:url(#SVGID_90_);}
	.st93{fill:url(#SVGID_91_);}
	.st94{fill:url(#SVGID_92_);}
	.st95{fill:url(#SVGID_93_);}
	.st96{fill:url(#SVGID_94_);}
	.st97{fill:url(#SVGID_95_);}
	.st98{fill:url(#SVGID_96_);}
	.st99{fill:url(#SVGID_97_);}
	.st100{fill:url(#SVGID_98_);}
	.st101{fill:url(#SVGID_99_);}
	.st102{fill:url(#SVGID_100_);}
	.st103{fill:url(#SVGID_101_);}
	.st104{fill:url(#SVGID_102_);}
	.st105{fill:url(#SVGID_103_);}
	.st106{fill:url(#SVGID_104_);}
</style>
<g>
	<path class="st84" d="M36.4,61.3c-1.5,1.3-1.8,1.4-3.3,0.5c-8.2-4.7-14.3-11.4-18.2-20c-0.1-0.2-0.2-0.5-0.4-0.9
		c3.8,1.5,7,3.7,9.5,7c-0.2-1.9-1-3.3-2.1-4.6c-1.9-2.2-4.2-3.7-6.7-5.1c-2.6-1.4-5.1-2.9-7.6-4.5c-0.9-0.6-1.5-1.5-2.2-2.3
		C5.3,34,6.6,36.3,9.2,38c0.7,0.5,1.1,1.1,1.5,1.9C15,51.5,22.6,60,33.5,65.7c0.7,0.3,1.3,0.5,2,0c2.3-1.5,4.7-3,7.1-4.4
		c0.2-0.1,0.2-0.3,0.2-0.2c-2.4-1.4-4.9-2.6-7.1-4.3c-5-3.7-7.7-8.8-8-15c-0.2-3.2-0.1-6.5-0.2-9.6c-0.2-7-3.2-12.3-9.5-15.5
		c-2.8-1.4-5.7-2.6-8.6-3.9c-3.9-1.6-5.7-2.9-7.9-5.5C1.7,8,1.7,8.7,2,9.4c1.1,3.1,3.3,5.4,6.1,6.9s5.7,3,8.6,4.4
		c5.1,2.6,7.3,6.7,7.2,12.3c-0.1,4.8-0.1,9.7,1.3,14.4c1.8,6.1,5,11.2,11.1,13.8C36.3,61.2,36.3,61.3,36.4,61.3z"/>
	<path class="st84" d="M64.4,8.7c0.3,3.5-0.3,6.7-2.5,9.6c-2.8,3.7-6.6,5.8-10.9,7c-4.2,1-8.2,2.3-11.8,4.7
		c-7.9,5.3-9,16.8-3.8,23.3c2.3,3,5.4,4.9,9,5.7c0.4,0.1,1-0.1,1.3-0.4c3.8-3.2,6.7-7.1,9.1-11.5c0.9-1.6,1.7-3.1,2.6-4.7
		c0.2-0.3,0.3-0.6,0.6-1.1c-4.1,1.5-7.8,2.9-11.6,4.3c-0.5,0.2-1,0.5-1.5,0.9c-1.9,1.5-2.2,3.3-0.8,5.7c0-2.8,1.9-3.8,3.9-4.7
		c1.1-0.5,2.4-0.9,3.6-1.3c0.1,0.1,0.2,0.3,0.3,0.4c-1.7,2.2-3.3,4.3-4.9,6.5c-0.2,0.2-0.4,0.5-0.6,0.7c-1.3,1.4-1.4,1.5-3,0.5
		c-3.6-2.2-5.5-5.5-5.9-9.6c-0.3-3.3-0.1-6.4,2.4-8.9c1.3-1.3,2.5-2.5,4.1-3.4c2.9-1.5,5.9-3,8.9-4.1c4.4-1.6,8.3-3.7,10.9-7.8
		C66,16.5,65.9,12.6,64.4,8.7z"/>
	<path class="st84" d="M52.3,23c0.2-0.1,0.2-0.1,0.3-0.1c3-2.7,2.6-5.3-1.1-6.8c-0.3-0.1-0.6-0.3-1-0.3c-1.8-0.5-3.5-1-5.1-2.1
		c-2.3-1.5-5.1-1-7.7-0.3c-1.7,0.4-3.3,1.1-4.8,1.8c-2.7,1.2-5.4,2.5-8.2,3.7c3.7,3.9,4.9,8.7,5.1,13.9c0.9-4.2,1-8.4-0.5-12.6
		c1.4-0.7,2.7-1.3,4.1-2c1.5-0.7,2.9-1.7,4.5-2.3c1.5-0.5,3.1-0.6,4.6-0.9c0,0.1,0.1,0.2,0.1,0.3c-1.4,0.5-2.9,1-4.3,1.5
		c0.1,0.1,0.1,0.2,0.1,0.3c1.9-0.1,3.8-0.3,5.8-0.3c1.9,0.1,3.8,0.3,5.6,0.7c-4.9,0.3-8.8,2.4-11.9,6.1c-2.7,3.3-4.3,7-5.1,11.1
		c1.8-3.1,4.1-5.5,7.3-7.2c0.4-0.2,0.6-0.9,0.8-1.3c1.8-4,5.5-6.4,9.5-6.2C52.2,20.2,52.9,21.1,52.3,23z"/>
	<path class="st84" d="M11.8,10.9c1.5,0.7,2.9,1.3,4.2,1.9c0.2,0.1,0.6,0.1,0.9,0c6.7-1.7,13.4-2.4,20.3-2.1
		c6.2,0.2,12.3,1.2,18.3,3.1c0.8,0.3,1.1,0.7,1.3,1.4c0.2,1.4,0.5,2.9,0.8,4.5c1-0.9,1.8-1.7,2.6-2.5c0.2-0.2,0.3-0.6,0.2-0.9
		c-0.2-0.9-0.5-1.9-0.6-2.8c-0.1-1.7-1.1-2.3-2.6-2.7c-5.3-1.6-10.7-2.7-16.3-3.2c-9.7-0.8-19.2,0.1-28.5,3.1
		C12.2,10.8,12.1,10.8,11.8,10.9z"/>
	<path class="st84" d="M62.9,38.3C61.3,39,60.5,40,60,41.5c-4.7,12.2-13,21.1-24.7,26.7c-0.4,0.2-1.1,0.2-1.5,0
		C21.7,62.2,13.3,53,8.6,40.3c-0.4-1.1-1.5-1.9-2.3-2.8c-0.2,0.1-0.3,0.2-0.5,0.3c1,2.6,1.8,5.3,3,7.7C14.2,56.8,22.7,65,34,70.3
		c0.3,0.1,0.7,0.2,1,0.1C48.8,63.9,58.2,53.5,62.8,39C62.8,38.8,62.8,38.6,62.9,38.3z"/>
	<path class="st84" d="M62.2,13.8c0.2-0.9,0.6-1.8,0.7-2.8c0.2-1.5-0.3-2.2-1.8-2.7c-7.4-2.8-15-4.2-22.8-4.6
		C27.5,3.2,17,4.8,6.8,8.7c1,1.1,1.8,1.3,3,0.9c6.8-2.4,13.8-3.7,21-4c9.9-0.5,19.5,0.9,28.8,4.1c1,0.3,1.6,0.9,1.7,1.9
		c0.1,0.7,0.4,1.4,0.6,2.2C62,13.8,62.1,13.8,62.2,13.8z"/>
	<path class="st84" d="M39.9,42.4c2.4-4.5,6.9-6,11.2-7.5c3.8-1.3,7.7-2.3,11.1-4.6c5.9-4,7.5-9.9,5.7-15.7c-0.3,1.8-0.5,3.7-1,5.6
		c-1.3,4.7-4.6,7.7-9,9.4c-2.9,1.1-5.8,1.9-8.6,3.1c-3.2,1.3-6.1,3.1-8,6.1c-0.7,1-1.1,2.3-1.7,3.5C39.7,42.3,39.8,42.3,39.9,42.4z"
		/>
	<path class="st84" d="M21.7,34c-0.5-4.2-2.2-7.7-5.9-9.9c-3.3-2-6.5-3.8-9.6-6.1c-2.1-1.5-3.9-3.5-5.8-5.3c0.2,3.1,1.6,5.8,4.1,7.8
		c1.6,1.3,3.4,2.3,5.2,3.3C14.3,26.5,18.9,29.3,21.7,34z"/>
	<path class="st84" d="M22.5,40.2c-0.4-2.7-2.2-5-4.6-6.7c-1.7-1.1-3.4-2.2-5.2-3.2C9,28.1,5.3,25.9,2.6,22.1
		c-0.3,2.4,0.5,4.2,1.8,5.9c1.8,2.2,4,3.7,6.5,4.9c2.5,1.3,5,2.5,7.4,3.9C19.9,37.7,21.2,39.1,22.5,40.2z"/>
	<path class="st84" d="M41.3,48.3c0.4-2.5,1.8-4.2,4-5.1c2.6-1.1,5.3-1.9,8-2.7c2.9-0.9,5.7-1.9,8-3.9c1.1-1,2-2.1,2.2-3.8
		c-4.6,3.3-9.9,4.7-15,6.5c-2.3,0.8-4.5,1.8-6,3.8C41.1,44.7,40.7,46.4,41.3,48.3z"/>
</g>
</svg>
